# Blender 3.6.0
# www.blender.org
o ShipPowerCable_Raw
v -0.050000 0.250000 0.050000
v -0.059755 0.250000 0.049039
v -0.050000 -0.250000 0.050000
v -0.059755 -0.250000 0.049039
v -0.069134 0.250000 0.046194
v -0.069134 -0.250000 0.046194
v -0.077779 0.250000 0.041573
v -0.077779 -0.250000 0.041573
v -0.085355 0.250000 0.035355
v -0.085355 -0.250000 0.035355
v -0.091573 0.250000 0.027779
v -0.091573 -0.250000 0.027779
v -0.096194 0.250000 0.019134
v -0.096194 -0.250000 0.019134
v -0.099039 0.250000 0.009755
v -0.099039 -0.250000 0.009755
v -0.100000 0.250000 0.000000
v -0.100000 -0.250000 0.000000
v -0.099039 0.250000 -0.009755
v -0.099039 -0.250000 -0.009755
v -0.096194 0.250000 -0.019134
v -0.096194 -0.250000 -0.019134
v -0.091573 0.250000 -0.027779
v -0.091573 -0.250000 -0.027779
v -0.085355 -0.250000 -0.035355
v -0.085355 0.250000 -0.035355
v -0.077779 0.250000 -0.041573
v -0.077779 -0.250000 -0.041573
v -0.069134 0.250000 -0.046194
v -0.069134 -0.250000 -0.046194
v -0.059755 0.250000 -0.049039
v -0.059755 -0.250000 -0.049039
v -0.050000 -0.250000 -0.050000
v -0.050000 0.250000 -0.050000
v 0.050000 0.250000 -0.050000
v 0.050000 -0.250000 -0.050000
v 0.059755 0.250000 -0.049039
v 0.059755 -0.250000 -0.049039
v 0.069134 0.250000 -0.046194
v 0.069134 -0.250000 -0.046194
v 0.077779 0.250000 -0.041573
v 0.077779 -0.250000 -0.041573
v 0.085355 0.250000 -0.035355
v 0.085355 -0.250000 -0.035355
v 0.091573 0.250000 -0.027779
v 0.091573 -0.250000 -0.027779
v 0.096194 0.250000 -0.019134
v 0.096194 -0.250000 -0.019134
v 0.099039 0.250000 -0.009755
v 0.099039 -0.250000 -0.009755
v 0.100000 0.250000 0.000000
v 0.100000 -0.250000 0.000000
v 0.099039 0.250000 0.009755
v 0.099039 -0.250000 0.009755
v 0.096194 0.250000 0.019134
v 0.096194 -0.250000 0.019134
v 0.091573 0.250000 0.027779
v 0.091573 -0.250000 0.027779
v 0.085355 0.250000 0.035355
v 0.085355 -0.250000 0.035355
v 0.077779 0.250000 0.041573
v 0.077779 -0.250000 0.041573
v 0.069134 -0.250000 0.046194
v 0.069134 0.250000 0.046194
v 0.059755 0.250000 0.049039
v 0.059755 -0.250000 0.049039
v 0.050000 0.250000 0.050000
v 0.050000 -0.250000 0.050000
v -0.050000 0.250000 0.050000
v -0.050000 0.250000 -0.050000
v 0.050000 0.250000 0.050000
v 0.050000 0.250000 -0.050000
v -0.050000 -0.250000 0.050000
v -0.050000 -0.250000 -0.050000
v 0.050000 -0.250000 -0.050000
v 0.050000 -0.250000 0.050000
vn -0.0980 -0.0000 0.9952
vn -0.6344 -0.0000 0.7730
vn 0.8819 -0.0000 -0.4714
vn 0.9569 -0.0000 -0.2903
vn -0.9569 -0.0000 0.2903
vn -0.9952 -0.0000 0.0980
vn -0.0000 1.0000 -0.0000
vn -0.8819 -0.0000 -0.4714
vn -0.4714 -0.0000 -0.8819
vn -0.2903 -0.0000 -0.9569
vn -0.9569 -0.0000 -0.2903
vn -0.9952 -0.0000 -0.0980
vn 0.4714 -0.0000 -0.8819
vn 0.2903 -0.0000 -0.9569
vn -0.0980 -0.0000 -0.9952
vn -0.0000 -0.0000 -1.0000
vn 0.0980 -0.0000 -0.9952
vn 0.6344 -0.0000 -0.7730
vn 0.7730 -0.0000 -0.6344
vn -0.7730 -0.0000 -0.6344
vn 0.9952 -0.0000 -0.0980
vn 0.9952 -0.0000 0.0980
vn 0.9569 -0.0000 0.2903
vn 0.8819 -0.0000 0.4714
vn 0.7730 -0.0000 0.6344
vn 0.6344 -0.0000 0.7730
vn -0.0000 -1.0000 -0.0000
vn -0.4714 -0.0000 0.8819
vn -0.2903 -0.0000 0.9569
vn 0.0980 -0.0000 0.9952
vn -0.0000 -0.0000 1.0000
vn -0.8819 -0.0000 0.4714
vn -0.6344 -0.0000 -0.7730
vn 0.2903 -0.0000 0.9569
vn -0.7730 -0.0000 0.6344
vn 0.4714 -0.0000 0.8819
vt 0.061551 0.843016
vt 0.045145 0.843016
vt 0.061551 0.002089
vt 0.045145 0.002089
vt 0.002089 0.843016
vt 0.014831 0.002089
vt 0.014831 0.843016
vt 0.677653 0.843016
vt 0.691361 0.002089
vt 0.691361 0.843016
vt 0.662424 0.843016
vt 0.677653 0.002089
vt 0.747787 0.002089
vt 0.732558 0.843016
vt 0.732558 0.002089
vt 0.763957 0.002089
vt 0.747788 0.843016
vt 0.829725 0.254367
vt 0.997911 0.086182
vt 0.997911 0.254367
vt 0.829725 0.086182
vt 0.996294 0.069776
vt 0.811841 0.002089
vt 0.796610 0.843016
vt 0.796610 0.002089
vt 0.553205 0.843016
vt 0.567745 0.002089
vt 0.567745 0.843016
vt 0.537431 0.843016
vt 0.553205 0.002089
vt 0.780442 0.843016
vt 0.780442 0.002089
vt 0.763957 0.843016
vt 0.306119 0.843016
vt 0.320659 0.002089
vt 0.320659 0.843016
vt 0.336433 0.002089
vt 0.336433 0.843016
vt 0.537431 0.002089
vt 0.521025 0.002089
vt 0.521025 0.843016
vt 0.352839 0.843016
vt 0.352839 0.002089
vt 0.293377 0.843016
vt 0.306119 0.002089
vt 0.703017 0.002089
vt 0.703017 0.843016
vt 0.825546 0.002089
vt 0.811841 0.843016
vt 0.646255 0.843016
vt 0.662424 0.002089
vt 0.629769 0.843016
vt 0.646255 0.002089
vt 0.613602 0.843016
vt 0.629769 0.002089
vt 0.598371 0.843016
vt 0.613602 0.002089
vt 0.584665 0.843016
vt 0.598371 0.002089
vt 0.276457 0.843016
vt 0.289199 0.002089
vt 0.289199 0.843016
vt 0.829725 0.426732
vt 0.997911 0.594917
vt 0.829725 0.594917
vt 0.996294 0.611323
vt 0.854356 0.654379
vt 0.029371 0.002089
vt 0.029371 0.843016
vt 0.246143 0.843016
vt 0.229737 0.843016
vt 0.246143 0.002089
vt 0.229737 0.002089
vt 0.836126 0.286548
vt 0.831342 0.270774
vt 0.843898 0.301088
vt 0.854356 0.313829
vt 0.867098 0.324287
vt 0.881637 0.332059
vt 0.897411 0.336844
vt 0.913818 0.338460
vt 0.930224 0.336844
vt 0.945998 0.332059
vt 0.960538 0.324287
vt 0.973280 0.313829
vt 0.983738 0.301088
vt 0.991509 0.286548
vt 0.996294 0.270774
vt 0.718851 0.843016
vt 0.718851 0.002089
vt 0.580487 0.002089
vt 0.580487 0.843016
vt 0.854356 0.026720
vt 0.991509 0.054001
vt 0.983738 0.039462
vt 0.973280 0.026720
vt 0.960538 0.016262
vt 0.945998 0.008491
vt 0.930224 0.003706
vt 0.913818 0.002089
vt 0.897411 0.003706
vt 0.881637 0.008491
vt 0.867098 0.016262
vt 0.836126 0.054001
vt 0.843898 0.039462
vt 0.831341 0.069776
vt 0.836126 0.394551
vt 0.831342 0.410325
vt 0.843898 0.380011
vt 0.854356 0.367270
vt 0.867098 0.356812
vt 0.881637 0.349040
vt 0.897411 0.344255
vt 0.913818 0.342639
vt 0.930224 0.344255
vt 0.945998 0.349040
vt 0.960538 0.356812
vt 0.973280 0.367270
vt 0.983738 0.380011
vt 0.991509 0.394551
vt 0.996294 0.410325
vt 0.997911 0.426732
vt 0.261917 0.002089
vt 0.261917 0.843016
vt 0.707195 0.843016
vt 0.707195 0.002089
vt 0.991509 0.627097
vt 0.983738 0.641637
vt 0.973280 0.654379
vt 0.960538 0.664837
vt 0.945998 0.672608
vt 0.930224 0.677393
vt 0.913818 0.679010
vt 0.897411 0.677393
vt 0.881637 0.672608
vt 0.867098 0.664837
vt 0.836126 0.627097
vt 0.843898 0.641637
vt 0.831342 0.611323
vt 0.276457 0.002089
vt 0.002089 0.002089
vt 0.293377 0.002089
vt 0.825546 0.843016
vt 0.584665 0.002089
s 0
f 1/1/1 2/2/1 3/3/1
f 3/3/1 2/2/1 4/4/1
f 9/5/2 8/6/2 7/7/2
f 47/8/3 46/9/3 45/10/3
f 49/11/4 48/12/4 47/8/4
f 15/13/5 14/14/5 13/15/5
f 17/16/6 16/17/6 15/13/6
f 69/18/7 72/19/7 70/20/7
f 71/21/7 37/22/7 72/19/7
f 23/23/8 22/24/8 21/25/8
f 29/26/9 28/27/9 27/28/9
f 31/29/10 30/30/10 29/26/10
f 21/25/11 20/31/11 19/32/11
f 19/32/12 18/33/12 17/16/12
f 41/34/13 40/35/13 39/36/13
f 39/36/14 38/37/14 37/38/14
f 32/39/15 31/29/15 33/40/15
f 31/29/15 34/41/15 33/40/15
f 34/41/16 35/42/16 33/40/16
f 33/40/16 35/42/16 36/43/16
f 35/42/17 37/38/17 36/43/17
f 36/43/17 37/38/17 38/37/17
f 43/44/18 42/45/18 41/34/18
f 45/10/19 44/46/19 43/47/19
f 26/48/20 24/49/20 23/23/20
f 51/50/21 50/51/21 49/11/21
f 53/52/22 52/53/22 51/50/22
f 55/54/23 54/55/23 53/52/23
f 57/56/24 56/57/24 55/54/24
f 59/58/25 58/59/25 57/56/25
f 61/60/26 60/61/26 59/62/26
f 73/63/27 75/64/27 76/65/27
f 76/65/27 38/66/27 60/67/27
f 7/7/28 6/68/28 5/69/28
f 5/69/29 4/4/29 2/2/29
f 65/70/30 67/71/30 66/72/30
f 66/72/30 67/71/30 68/73/30
f 67/71/31 1/1/31 68/73/31
f 68/73/31 1/1/31 3/3/31
f 69/18/7 5/74/7 2/75/7
f 69/18/7 7/76/7 5/74/7
f 69/18/7 9/77/7 7/76/7
f 69/18/7 11/78/7 9/77/7
f 69/18/7 13/79/7 11/78/7
f 69/18/7 15/80/7 13/79/7
f 69/18/7 17/81/7 15/80/7
f 69/18/7 19/82/7 17/81/7
f 69/18/7 21/83/7 19/82/7
f 69/18/7 23/84/7 21/83/7
f 69/18/7 26/85/7 23/84/7
f 69/18/7 27/86/7 26/85/7
f 69/18/7 29/87/7 27/86/7
f 69/18/7 31/88/7 29/87/7
f 69/18/7 70/20/7 31/88/7
f 13/15/32 12/89/32 11/90/32
f 27/28/33 25/91/33 26/92/33
f 59/93/7 39/94/7 37/22/7
f 59/93/7 41/95/7 39/94/7
f 59/93/7 43/96/7 41/95/7
f 59/93/7 45/97/7 43/96/7
f 59/93/7 47/98/7 45/97/7
f 59/93/7 49/99/7 47/98/7
f 59/93/7 51/100/7 49/99/7
f 59/93/7 53/101/7 51/100/7
f 59/93/7 55/102/7 53/101/7
f 59/93/7 57/103/7 55/102/7
f 59/93/7 64/104/7 61/105/7
f 59/93/7 65/106/7 64/104/7
f 59/93/7 71/21/7 65/106/7
f 6/107/27 73/63/27 4/108/27
f 8/109/27 73/63/27 6/107/27
f 10/110/27 73/63/27 8/109/27
f 12/111/27 73/63/27 10/110/27
f 14/112/27 73/63/27 12/111/27
f 16/113/27 73/63/27 14/112/27
f 18/114/27 73/63/27 16/113/27
f 20/115/27 73/63/27 18/114/27
f 22/116/27 73/63/27 20/115/27
f 24/117/27 73/63/27 22/116/27
f 25/118/27 73/63/27 24/117/27
f 28/119/27 73/63/27 25/118/27
f 30/120/27 73/63/27 28/119/27
f 32/121/27 73/63/27 30/120/27
f 74/122/27 73/63/27 32/121/27
f 65/70/34 63/123/34 64/124/34
f 11/90/35 10/125/35 9/126/35
f 40/127/27 60/67/27 38/66/27
f 42/128/27 60/67/27 40/127/27
f 44/129/27 60/67/27 42/128/27
f 46/130/27 60/67/27 44/129/27
f 48/131/27 60/67/27 46/130/27
f 50/132/27 60/67/27 48/131/27
f 52/133/27 60/67/27 50/132/27
f 54/134/27 60/67/27 52/133/27
f 56/135/27 60/67/27 54/134/27
f 58/136/27 60/67/27 56/135/27
f 63/137/27 60/67/27 62/138/27
f 66/139/27 60/67/27 63/137/27
f 76/65/27 60/67/27 66/139/27
f 64/124/36 62/140/36 61/60/36
f 9/5/2 10/141/2 8/6/2
f 47/8/3 48/12/3 46/9/3
f 49/11/4 50/51/4 48/12/4
f 15/13/5 16/17/5 14/14/5
f 17/16/6 18/33/6 16/17/6
f 69/18/7 71/21/7 72/19/7
f 71/21/7 59/93/7 37/22/7
f 23/23/8 24/49/8 22/24/8
f 29/26/9 30/30/9 28/27/9
f 31/29/10 32/39/10 30/30/10
f 21/25/11 22/24/11 20/31/11
f 19/32/12 20/31/12 18/33/12
f 41/34/13 42/45/13 40/35/13
f 39/36/14 40/35/14 38/37/14
f 43/44/18 44/142/18 42/45/18
f 45/10/19 46/9/19 44/46/19
f 26/48/20 25/143/20 24/49/20
f 51/50/21 52/53/21 50/51/21
f 53/52/22 54/55/22 52/53/22
f 55/54/23 56/57/23 54/55/23
f 57/56/24 58/59/24 56/57/24
f 59/58/25 60/144/25 58/59/25
f 61/60/26 62/140/26 60/61/26
f 73/63/27 74/122/27 75/64/27
f 76/65/27 75/64/27 38/66/27
f 7/7/28 8/6/28 6/68/28
f 5/69/29 6/68/29 4/4/29
f 13/15/32 14/14/32 12/89/32
f 27/28/33 28/27/33 25/91/33
f 65/70/34 66/72/34 63/123/34
f 11/90/35 12/89/35 10/125/35
f 64/124/36 63/123/36 62/140/36
