# Created by FreeCAD <http://www.freecad.org>
v -0.500000 0.500000 1.000000
v -0.500000 0.300000 0.800000
v -0.500000 0.300000 1.000000
v -0.500000 0.500000 0.200000
v -0.500000 -0.300000 1.000000
v -0.500000 -0.300000 0.800000
v -0.500000 -0.500000 1.000000
v -0.500000 -0.500000 0.200000
v -0.300000 -0.500000 0.800000
v -0.300000 -0.500000 1.000000
v 0.300000 -0.500000 1.000000
v 0.300000 -0.500000 0.800000
v 0.500000 -0.500000 1.000000
v 0.500000 -0.500000 0.200000
v -0.498904 -0.498904 0.179095
v -0.497178 0.497178 0.166522
v -0.495630 -0.495630 0.158418
v -0.488793 0.488793 0.133990
v -0.486795 -0.486795 0.128533
v -0.474652 0.474652 0.102549
v -0.473013 -0.473013 0.099669
v -0.454717 0.454717 0.073261
v -0.454209 -0.454209 0.072644
v -0.430509 -0.430509 0.048450
v -0.429071 0.429071 0.047223
v -0.402336 -0.402336 0.028165
v -0.398128 0.398128 0.025728
v -0.370455 -0.370455 0.012821
v -0.362750 0.362750 0.010099
v -0.335806 -0.335806 0.003231
v -0.331778 0.331778 0.002541
v -0.300000 -0.300000 -0.000000
v -0.300000 0.300000 -0.000000
v -0.300000 -0.300000 1.000000
v 0.500000 0.500000 1.000000
v 0.300000 0.500000 0.800000
v 0.300000 0.500000 1.000000
v 0.500000 0.500000 0.200000
v -0.300000 0.500000 1.000000
v -0.300000 0.500000 0.800000
v -0.300000 -0.300000 0.800000
v -0.300000 0.300000 1.000000
v 0.300000 -0.300000 0.800000
v -0.300000 0.300000 0.800000
v 0.300000 0.300000 0.800000
v 0.500000 0.300000 0.800000
v 0.500000 -0.300000 0.800000
v 0.500000 -0.300000 1.000000
v 0.500000 0.300000 1.000000
v 0.335806 -0.335806 0.003231
v 0.300000 -0.300000 -0.000000
v 0.370455 -0.370455 0.012821
v 0.402336 -0.402336 0.028165
v 0.430509 -0.430509 0.048450
v 0.454209 -0.454209 0.072644
v 0.473013 -0.473013 0.099669
v 0.486795 -0.486795 0.128533
v 0.495630 -0.495630 0.158418
v 0.498904 -0.498904 0.179095
v 0.300000 -0.300000 1.000000
v 0.300000 0.300000 -0.000000
v 0.335806 0.335806 0.003231
v 0.370455 0.370455 0.012821
v 0.402336 0.402336 0.028165
v 0.430509 0.430509 0.048450
v 0.454209 0.454209 0.072644
v 0.473013 0.473013 0.099669
v 0.486795 0.486795 0.128533
v 0.495630 0.495630 0.158418
v 0.498904 0.498904 0.179095
v 0.300000 0.300000 1.000000
vn -1.000000 -0.000000 0.000000
vn -1.000000 0.000000 -0.000000
vn -1.000000 -0.000000 -0.000000
vn -1.000000 -0.000000 0.000000
vn -1.000000 0.000000 0.000000
vn -1.000000 -0.000000 0.000000
vn 0.000000 -1.000000 0.000000
vn 0.000000 -1.000000 0.000000
vn 0.000000 -1.000000 0.000000
vn 0.000000 -1.000000 0.000000
vn 0.000000 -1.000000 0.000000
vn 0.000000 -1.000000 0.000000
vn -0.996462 0.000666 -0.084046
vn -0.998630 0.000000 -0.052335
vn -0.968316 0.000528 -0.249729
vn -0.987682 -0.000263 -0.156472
vn -0.911933 0.000428 -0.410339
vn -0.958947 -0.000377 -0.283587
vn -0.826581 0.000281 -0.562817
vn -0.902365 -0.000250 -0.430973
vn -0.820818 -0.000071 -0.571190
vn -0.712355 0.000190 -0.701820
vn -0.714396 0.000076 -0.699741
vn -0.570200 0.000496 -0.821506
vn -0.584198 -0.000181 -0.811611
vn -0.403384 0.000842 -0.915031
vn -0.433299 -0.000466 -0.901250
vn -0.236675 0.000423 -0.971589
vn -0.266004 -0.000783 -0.963972
vn -0.079700 0.000000 -0.996819
vn -0.089392 -0.000491 -0.995996
vn 0.000000 0.000000 1.000000
vn 0.000000 0.000000 1.000000
vn 0.000000 1.000000 0.000000
vn 0.000000 1.000000 0.000000
vn 0.000000 1.000000 0.000000
vn 0.000000 1.000000 0.000000
vn 0.000000 1.000000 0.000000
vn 0.000000 1.000000 0.000000
vn -0.000000 1.000000 0.000000
vn 0.000000 1.000000 0.000000
vn 0.000000 0.000000 1.000000
vn 0.000000 0.000000 1.000000
vn 0.000000 0.000000 1.000000
vn 0.000000 0.000000 1.000000
vn 0.000000 0.000000 1.000000
vn 0.000000 0.000000 1.000000
vn 0.000000 0.000000 1.000000
vn 0.000000 0.000000 1.000000
vn 0.000000 0.000000 1.000000
vn 0.000000 0.000000 1.000000
vn 0.000000 0.000000 1.000000
vn 0.000000 0.000000 1.000000
vn -0.000000 -1.000000 0.000000
vn 0.000000 -1.000000 -0.000000
vn 1.000000 -0.000000 0.000000
vn 1.000000 0.000000 0.000000
vn 1.000000 -0.000000 0.000000
vn 1.000000 -0.000000 0.000000
vn 1.000000 0.000000 0.000000
vn 1.000000 -0.000000 0.000000
vn 0.000000 -0.089879 -0.995953
vn 0.000000 -0.266731 -0.963771
vn -0.000000 -0.089879 -0.995953
vn 0.000000 -0.433678 -0.901068
vn 0.000000 -0.266732 -0.963771
vn 0.000000 -0.584317 -0.811526
vn 0.000000 -0.433678 -0.901068
vn 0.000000 -0.714359 -0.699780
vn 0.000000 -0.584317 -0.811525
vn 0.000000 -0.820841 -0.571157
vn 0.000000 -0.714359 -0.699780
vn 0.000000 -0.902411 -0.430876
vn 0.000000 -0.820841 -0.571157
vn 0.000000 -0.958977 -0.283484
vn 0.000000 -0.902411 -0.430876
vn 0.000000 -0.958977 -0.283484
vn 0.000000 -0.987689 -0.156431
vn 0.000000 -0.998630 -0.052335
vn -0.000000 -0.987689 -0.156431
vn 0.000000 -0.998630 -0.052335
vn 0.000000 0.000000 1.000000
vn 0.000000 0.000000 1.000000
vn -1.000000 0.000000 0.000000
vn -1.000000 0.000000 0.000000
vn 1.000000 0.000000 0.000000
vn 1.000000 0.000000 0.000000
vn 0.000491 0.089392 -0.995996
vn 0.000000 0.079700 -0.996819
vn 0.000783 0.266004 -0.963972
vn -0.000423 0.236675 -0.971589
vn 0.000466 0.433299 -0.901250
vn -0.000842 0.403383 -0.915031
vn 0.000181 0.584198 -0.811611
vn -0.000496 0.570200 -0.821506
vn -0.000076 0.714396 -0.699741
vn 0.000071 0.820818 -0.571190
vn -0.000190 0.712355 -0.701820
vn 0.000250 0.902365 -0.430973
vn -0.000281 0.826581 -0.562817
vn 0.000377 0.958947 -0.283587
vn -0.000428 0.911933 -0.410339
vn 0.000263 0.987682 -0.156472
vn -0.000528 0.968316 -0.249729
vn 0.000000 0.998630 -0.052335
vn -0.000666 0.996462 -0.084046
vn 0.000000 0.000000 -1.000000
vn 0.000000 0.000000 -1.000000
vn 1.000000 0.000000 0.000000
vn 1.000000 0.000000 0.000000
vn 0.000000 0.000000 1.000000
vn 0.000000 0.000000 1.000000
vn -1.000000 0.000000 0.000000
vn -1.000000 0.000000 0.000000
vn -0.000000 -1.000000 -0.000000
vn 0.000000 -1.000000 0.000000
vn -0.000000 1.000000 0.000000
vn 0.000000 1.000000 0.000000
vn 0.089879 0.000000 -0.995953
vn 0.266731 0.000000 -0.963771
vn 0.089879 0.000000 -0.995953
vn 0.433678 0.000000 -0.901068
vn 0.266732 0.000000 -0.963771
vn 0.584317 0.000000 -0.811526
vn 0.433678 0.000000 -0.901068
vn 0.714359 0.000000 -0.699780
vn 0.584317 0.000000 -0.811525
vn 0.820841 0.000000 -0.571157
vn 0.714359 0.000000 -0.699780
vn 0.902411 0.000000 -0.430876
vn 0.820841 0.000000 -0.571157
vn 0.958977 0.000000 -0.283484
vn 0.902411 0.000000 -0.430876
vn 0.958977 0.000000 -0.283484
vn 0.987689 0.000000 -0.156431
vn 0.998630 0.000000 -0.052335
vn 0.987689 0.000000 -0.156431
vn 0.998630 0.000000 -0.052335
f 1//1 2//1 3//1
f 1//2 4//2 2//2
f 5//3 6//3 7//3
f 2//4 8//4 6//4
f 4//5 8//5 2//5
f 6//6 8//6 7//6
f 7//7 9//7 10//7
f 7//8 8//8 9//8
f 11//9 12//9 13//9
f 9//10 14//10 12//10
f 8//11 14//11 9//11
f 12//12 14//12 13//12
f 15//13 4//13 16//13
f 15//14 8//14 4//14
f 17//15 16//15 18//15
f 17//16 15//16 16//16
f 19//17 18//17 20//17
f 19//18 17//18 18//18
f 21//19 20//19 22//19
f 21//20 19//20 20//20
f 23//21 21//21 22//21
f 24//22 22//22 25//22
f 24//23 23//23 22//23
f 26//24 25//24 27//24
f 26//25 24//25 25//25
f 28//26 27//26 29//26
f 28//27 26//27 27//27
f 30//28 29//28 31//28
f 30//29 28//29 29//29
f 32//30 31//30 33//30
f 32//31 30//31 31//31
f 34//32 5//32 7//32
f 34//33 7//33 10//33
f 35//34 36//34 37//34
f 35//35 38//35 36//35
f 39//36 40//36 1//36
f 36//37 4//37 40//37
f 38//38 4//38 36//38
f 40//39 4//39 1//39
f 5//40 34//40 6//40
f 6//41 34//41 41//41
f 39//42 1//42 3//42
f 39//43 3//43 42//43
f 43//44 41//44 9//44
f 43//45 9//45 12//45
f 44//46 6//46 41//46
f 44//47 2//47 6//47
f 45//48 44//48 41//48
f 45//49 41//49 43//49
f 36//50 40//50 44//50
f 36//51 44//51 45//51
f 46//52 43//52 47//52
f 46//53 45//53 43//53
f 42//54 3//54 2//54
f 42//55 2//55 44//55
f 13//56 47//56 48//56
f 13//57 14//57 47//57
f 49//58 46//58 35//58
f 47//59 38//59 46//59
f 14//60 38//60 47//60
f 46//61 38//61 35//61
f 32//62 50//62 30//62
f 30//63 50//63 28//63
f 51//64 50//64 32//64
f 28//65 52//65 26//65
f 50//66 52//66 28//66
f 26//67 53//67 24//67
f 52//68 53//68 26//68
f 24//69 54//69 23//69
f 53//70 54//70 24//70
f 23//71 55//71 21//71
f 54//72 55//72 23//72
f 21//73 56//73 19//73
f 55//74 56//74 21//74
f 19//75 57//75 17//75
f 56//76 57//76 19//76
f 57//77 58//77 17//77
f 17//78 59//78 15//78
f 15//79 59//79 8//79
f 58//80 59//80 17//80
f 59//81 14//81 8//81
f 48//82 60//82 11//82
f 48//83 11//83 13//83
f 11//84 60//84 12//84
f 12//85 60//85 43//85
f 34//86 10//86 9//86
f 34//87 9//87 41//87
f 61//88 31//88 62//88
f 33//89 31//89 61//89
f 62//90 29//90 63//90
f 31//91 29//91 62//91
f 63//92 27//92 64//92
f 29//93 27//93 63//93
f 64//94 25//94 65//94
f 27//95 25//95 64//95
f 65//96 22//96 66//96
f 66//97 22//97 67//97
f 25//98 22//98 65//98
f 67//99 20//99 68//99
f 22//100 20//100 67//100
f 68//101 18//101 69//101
f 20//102 18//102 68//102
f 69//103 16//103 70//103
f 18//104 16//104 69//104
f 70//105 4//105 38//105
f 16//106 4//106 70//106
f 32//107 61//107 51//107
f 33//108 61//108 32//108
f 39//109 42//109 44//109
f 39//110 44//110 40//110
f 35//111 37//111 71//111
f 35//112 71//112 49//112
f 71//113 37//113 36//113
f 71//114 36//114 45//114
f 49//115 71//115 46//115
f 46//116 71//116 45//116
f 60//117 48//117 47//117
f 60//118 47//118 43//118
f 61//119 50//119 51//119
f 50//120 62//120 52//120
f 61//121 62//121 50//121
f 52//122 63//122 53//122
f 62//123 63//123 52//123
f 53//124 64//124 54//124
f 63//125 64//125 53//125
f 54//126 65//126 55//126
f 64//127 65//127 54//127
f 55//128 66//128 56//128
f 65//129 66//129 55//129
f 56//130 67//130 57//130
f 66//131 67//131 56//131
f 57//132 68//132 58//132
f 67//133 68//133 57//133
f 68//134 69//134 58//134
f 58//135 70//135 59//135
f 59//136 70//136 14//136
f 69//137 70//137 58//137
f 70//138 38//138 14//138
