# Blender 4.0.2
# www.blender.org
o Cube
vg Base
v 1.000000 -1.000000 1.000000
v 1.000000 -1.000000 -1.000000
v -1.000000 -1.000000 1.000000
v -1.000000 -1.000000 -1.000000
v 1.000000 1.000000 1.000000
v 1.000000 1.000000 -1.000000
v -1.000000 1.000000 1.000000
v -1.000000 1.000000 -1.000000
vg Side1
v -3.329655 -1.000000 1.000000
v -3.329655 -1.000000 -1.000000
v -3.329655 1.000000 1.000000
v -3.329655 1.000000 -1.000000
vg Side2
v 2.908168 -1.000000 1.000000
v 2.908168 -1.000000 -1.000000
v 2.908168 1.000000 1.000000
v 2.908168 1.000000 -1.000000
vn -0.0000 -0.0000 1.0000
vn -0.0000 1.0000 -0.0000
vn -0.0000 -0.0000 -1.0000
vn -0.0000 -1.0000 -0.0000
vn -1.0000 -0.0000 -0.0000
vn 1.0000 -0.0000 -0.0000
vt 0.485565 0.525582
vt 0.728348 0.282800
vt 0.728348 0.525582
vt 0.242783 0.474418
vt 0.000000 0.757217
vt 0.000000 0.474418
vt 0.242783 0.231635
vt 0.971130 0.282800
vt 0.971130 0.525582
vt 0.242783 0.525582
vt 0.485565 0.282800
vt 0.242783 0.757217
vt 0.000000 0.757217
vt 0.242783 1.000000
vt 0.000000 1.000000
vt 0.971130 0.000000
vt 0.485565 0.282800
vt 0.728348 0.000000
vt 0.242783 0.282800
vt 0.485565 0.000000
vt 0.242783 0.757217
vt 0.485565 1.000000
vt 0.242783 1.000000
vt 0.000000 0.231635
vt 0.242783 -0.000000
vt 0.728348 0.757217
vt 0.485565 0.757217
vt 0.485565 0.757217
vt 0.242783 0.757217
vt 0.485565 0.000000
vt 0.242783 0.000000
vt 0.485565 0.757217
vt 0.000000 -0.000000
vt 0.971130 0.757217
s 0
f 5/1/1 3/2/1 1/3/1
f 8/4/2 11/5/2 7/6/2
f 7/6/2 6/7/2 8/4/2
f 2/3/3 8/8/3 6/9/3
f 1/10/4 4/11/4 2/1/4
f 2/1/4 13/12/4 1/10/4
f 9/13/5 12/14/5 10/15/5
f 4/2/3 12/16/3 8/8/3
f 7/17/1 9/18/1 3/2/1
f 3/19/4 10/20/4 4/11/4
f 15/21/6 14/22/6 16/23/6
f 5/24/2 16/25/2 6/7/2
f 6/9/3 14/26/3 2/3/3
f 1/3/1 15/27/1 5/1/1
f 5/1/1 7/17/1 3/2/1
f 8/4/2 12/21/2 11/5/2
f 7/6/2 5/24/2 6/7/2
f 2/3/3 4/2/3 8/8/3
f 1/10/4 3/19/4 4/11/4
f 2/1/4 14/28/4 13/12/4
f 9/13/5 11/29/5 12/14/5
f 4/2/3 10/18/3 12/16/3
f 7/17/1 11/30/1 9/18/1
f 3/19/4 9/31/4 10/20/4
f 15/21/6 13/32/6 14/22/6
f 5/24/2 15/33/2 16/25/2
f 6/9/3 16/34/3 14/26/3
f 1/3/1 13/26/1 15/27/1
