# Blender 4.0.2
# www.blender.org
o Cube
vg Base
v 1.000000 -1.000000 1.000000
v 1.000000 -1.000000 -1.000000
v -1.000000 -1.000000 1.000000
v -1.000000 -1.000000 -1.000000
v 1.000000 1.000000 1.000000
v 1.000000 1.000000 -1.000000
v -1.000000 1.000000 1.000000
v -1.000000 1.000000 -1.000000
vg %Interpolate Base End 0.1
v 1.000000 -2.000000 1.000000
v 1.000000 -2.000000 -1.000000
v -1.000000 -2.000000 1.000000
v -1.000000 -2.000000 -1.000000
vg %Interpolate Base End 0.2
v 1.000000 -3.000000 1.000000
v 1.000000 -3.000000 -1.000000
v -1.000000 -3.000000 1.000000
v -1.000000 -3.000000 -1.000000
vg %Interpolate Base End 0.3
v 1.000000 -4.000000 1.000000
v 1.000000 -4.000000 -1.000000
v -1.000000 -4.000000 1.000000
v -1.000000 -4.000000 -1.000000
vg %Interpolate Base End 0.4
v 1.000000 -5.000000 1.000000
v 1.000000 -5.000000 -1.000000
v -1.000000 -5.000000 1.000000
v -1.000000 -5.000000 -1.000000
vg %Interpolate Base End 0.5
v 1.000000 -6.000000 1.000000
v 1.000000 -6.000000 -1.000000
v -1.000000 -6.000000 1.000000
v -1.000000 -6.000000 -1.000000
vg %Interpolate Base End 0.6
v 1.000000 -7.000000 1.000000
v 1.000000 -7.000000 -1.000000
v -1.000000 -7.000000 1.000000
v -1.000000 -7.000000 -1.000000
vg %Interpolate Base End 0.7
v 1.000000 -8.000000 1.000000
v 1.000000 -8.000000 -1.000000
v -1.000000 -8.000000 1.000000
v -1.000000 -8.000000 -1.000000
vg %Interpolate Base End 0.8
v 1.000000 -9.000000 1.000000
v 1.000000 -9.000000 -1.000000
v -1.000000 -9.000000 1.000000
v -1.000000 -9.000000 -1.000000
vg %Interpolate Base End 0.9
v 1.000000 -10.000000 1.000000
v 1.000000 -10.000000 -1.000000
v -1.000000 -10.000000 1.000000
v -1.000000 -10.000000 -1.000000
vg End
v 1.000000 -11.000000 1.000000
v 1.000000 -11.000000 -1.000000
v -1.000000 -11.000000 1.000000
v -1.000000 -11.000000 -1.000000
v 1.000000 -13.000000 1.000000
v 1.000000 -13.000000 -1.000000
v -1.000000 -13.000000 1.000000
v -1.000000 -13.000000 -1.000000
vn -0.0000 -0.0000 1.0000
vn -1.0000 -0.0000 -0.0000
vn -0.0000 1.0000 -0.0000
vn -0.0000 -0.0000 -1.0000
vn 1.0000 -0.0000 -0.0000
vn -0.0000 -1.0000 -0.0000
vt 0.155251 0.982648
vt 0.017352 0.844749
vt 0.155251 0.844749
vt 0.189955 0.155251
vt 0.327855 0.017352
vt 0.327855 0.155251
vt 0.707765 0.017352
vt 0.845665 0.155251
vt 0.707765 0.155251
vt 0.500458 0.155251
vt 0.362558 0.017352
vt 0.500458 0.017352
vt 0.189955 0.224201
vt 0.535162 0.982648
vt 0.673061 0.844749
vt 0.673061 0.982648
vt 0.535162 0.775799
vt 0.673061 0.706849
vt 0.673061 0.775799
vt 0.535162 0.844749
vt 0.362558 0.224201
vt 0.362558 0.155251
vt 0.155251 0.775799
vt 0.500458 0.293151
vt 0.362558 0.362101
vt 0.362558 0.293151
vt 0.500458 0.224201
vt 0.327855 0.224201
vt 0.189955 0.293151
vt 0.017352 0.775799
vt 0.155251 0.706849
vt 0.017352 0.637899
vt 0.155251 0.568950
vt 0.155251 0.637899
vt 0.327855 0.293151
vt 0.189955 0.362101
vt 0.017352 0.706849
vt 0.535162 0.706849
vt 0.673061 0.637899
vt 0.500458 0.431050
vt 0.362558 0.500000
vt 0.362558 0.431050
vt 0.535162 0.637899
vt 0.673061 0.568950
vt 0.500458 0.362101
vt 0.327855 0.362101
vt 0.189955 0.431050
vt 0.327855 0.500000
vt 0.189955 0.568950
vt 0.189955 0.500000
vt 0.327855 0.431050
vt 0.017352 0.568950
vt 0.155251 0.500000
vt 0.535162 0.568950
vt 0.673061 0.500000
vt 0.017352 0.431050
vt 0.155251 0.362101
vt 0.155251 0.431050
vt 0.017352 0.500000
vt 0.535162 0.500000
vt 0.673061 0.431050
vt 0.500458 0.500000
vt 0.362558 0.568950
vt 0.500458 0.637899
vt 0.362558 0.706849
vt 0.362558 0.637899
vt 0.535162 0.431050
vt 0.673061 0.362101
vt 0.500458 0.568950
vt 0.327855 0.568950
vt 0.189955 0.637899
vt 0.017352 0.293151
vt 0.155251 0.224201
vt 0.155251 0.293151
vt 0.327855 0.637899
vt 0.189955 0.706849
vt 0.017352 0.362101
vt 0.535162 0.362101
vt 0.673061 0.293151
vt 0.017352 0.224201
vt 0.155251 0.155251
vt 0.535162 0.293151
vt 0.673061 0.224201
vt 0.500458 0.706849
vt 0.362558 0.775799
vt 0.327855 0.706849
vt 0.189955 0.775799
vt 0.500458 0.844749
vt 0.362558 0.982648
vt 0.362558 0.844749
vt 0.535162 0.224201
vt 0.673061 0.155251
vt 0.500458 0.775799
vt 0.327855 0.775799
vt 0.189955 0.844749
vt 0.707765 0.189955
vt 0.845665 0.327855
vt 0.707765 0.327855
vt 0.327855 0.844749
vt 0.189955 0.982648
vt 0.017352 0.155251
vt 0.155251 0.017352
vt 0.535162 0.155251
vt 0.673061 0.017352
vt 0.017352 0.982648
vt 0.189955 0.017352
vt 0.845665 0.017352
vt 0.500458 0.982648
vt 0.845665 0.189955
vt 0.327855 0.982648
vt 0.017352 0.017352
vt 0.535162 0.017352
s 0
f 5/1/1 3/2/1 1/3/1
f 3/4/2 8/5/2 4/6/2
f 7/7/3 6/8/3 8/9/3
f 2/10/4 8/11/4 6/12/4
f 4/6/2 11/13/2 3/4/2
f 5/14/5 2/15/5 6/16/5
f 9/17/5 14/18/5 10/19/5
f 1/20/5 10/19/5 2/15/5
f 2/10/4 12/21/4 4/22/4
f 3/2/1 9/23/1 1/3/1
f 14/24/4 20/25/4 16/26/4
f 10/27/4 16/26/4 12/21/4
f 12/28/2 15/29/2 11/13/2
f 11/30/1 13/31/1 9/23/1
f 19/32/1 21/33/1 17/34/1
f 16/35/2 19/36/2 15/29/2
f 15/37/1 17/34/1 13/31/1
f 13/38/5 18/39/5 14/18/5
f 22/40/4 28/41/4 24/42/4
f 17/43/5 22/44/5 18/39/5
f 18/45/4 24/42/4 20/25/4
f 20/46/2 23/47/2 19/36/2
f 28/48/2 31/49/2 27/50/2
f 24/51/2 27/50/2 23/47/2
f 23/52/1 25/53/1 21/33/1
f 21/54/5 26/55/5 22/44/5
f 31/56/1 33/57/1 29/58/1
f 27/59/1 29/58/1 25/53/1
f 25/60/5 30/61/5 26/55/5
f 26/62/4 32/63/4 28/41/4
f 34/64/4 40/65/4 36/66/4
f 29/67/5 34/68/5 30/61/5
f 30/69/4 36/66/4 32/63/4
f 32/70/2 35/71/2 31/49/2
f 39/72/1 41/73/1 37/74/1
f 36/75/2 39/76/2 35/71/2
f 35/77/1 37/74/1 33/57/1
f 33/78/5 38/79/5 34/68/5
f 43/80/1 45/81/1 41/73/1
f 37/82/5 42/83/5 38/79/5
f 38/84/4 44/85/4 40/65/4
f 40/86/2 43/87/2 39/76/2
f 46/88/4 52/89/4 48/90/4
f 41/91/5 46/92/5 42/83/5
f 42/93/4 48/90/4 44/85/4
f 44/94/2 47/95/2 43/87/2
f 49/96/6 52/97/6 50/98/6
f 48/99/2 51/100/2 47/95/2
f 47/101/1 49/102/1 45/81/1
f 45/103/5 50/104/5 46/92/5
f 5/1/1 7/105/1 3/2/1
f 3/4/2 7/106/2 8/5/2
f 7/7/3 5/107/3 6/8/3
f 2/10/4 4/22/4 8/11/4
f 4/6/2 12/28/2 11/13/2
f 5/14/5 1/20/5 2/15/5
f 9/17/5 13/38/5 14/18/5
f 1/20/5 9/17/5 10/19/5
f 2/10/4 10/27/4 12/21/4
f 3/2/1 11/30/1 9/23/1
f 14/24/4 18/45/4 20/25/4
f 10/27/4 14/24/4 16/26/4
f 12/28/2 16/35/2 15/29/2
f 11/30/1 15/37/1 13/31/1
f 19/32/1 23/52/1 21/33/1
f 16/35/2 20/46/2 19/36/2
f 15/37/1 19/32/1 17/34/1
f 13/38/5 17/43/5 18/39/5
f 22/40/4 26/62/4 28/41/4
f 17/43/5 21/54/5 22/44/5
f 18/45/4 22/40/4 24/42/4
f 20/46/2 24/51/2 23/47/2
f 28/48/2 32/70/2 31/49/2
f 24/51/2 28/48/2 27/50/2
f 23/52/1 27/59/1 25/53/1
f 21/54/5 25/60/5 26/55/5
f 31/56/1 35/77/1 33/57/1
f 27/59/1 31/56/1 29/58/1
f 25/60/5 29/67/5 30/61/5
f 26/62/4 30/69/4 32/63/4
f 34/64/4 38/84/4 40/65/4
f 29/67/5 33/78/5 34/68/5
f 30/69/4 34/64/4 36/66/4
f 32/70/2 36/75/2 35/71/2
f 39/72/1 43/80/1 41/73/1
f 36/75/2 40/86/2 39/76/2
f 35/77/1 39/72/1 37/74/1
f 33/78/5 37/82/5 38/79/5
f 43/80/1 47/101/1 45/81/1
f 37/82/5 41/91/5 42/83/5
f 38/84/4 42/93/4 44/85/4
f 40/86/2 44/94/2 43/87/2
f 46/88/4 50/108/4 52/89/4
f 41/91/5 45/103/5 46/92/5
f 42/93/4 46/88/4 48/90/4
f 44/94/2 48/99/2 47/95/2
f 49/96/6 51/109/6 52/97/6
f 48/99/2 52/110/2 51/100/2
f 47/101/1 51/111/1 49/102/1
f 45/103/5 49/112/5 50/104/5
