# Created by FreeCAD <http://www.freecad.org>
v 2.400000 0.000000 3.000000
v 2.400000 40.000000 3.000000
v 2.400000 40.000000 2.500000
v 2.400000 0.000000 2.500000
v 2.500000 40.000000 2.500000
v 2.500000 0.000000 2.500000
v 2.500000 40.000000 3.000000
v 2.500000 0.000000 3.000000
v 2.474928 0.000000 3.222521
v 2.474928 40.000000 3.222521
v 2.400969 0.000000 3.433884
v 2.400969 40.000000 3.433884
v 2.281832 0.000000 3.623490
v 2.281832 40.000000 3.623490
v 2.123490 0.000000 3.781832
v 2.123490 40.000000 3.781832
v 1.933884 40.000000 3.900969
v 1.933884 0.000000 3.900969
v 1.722521 0.000000 3.974928
v 1.722521 40.000000 3.974928
v 1.500000 0.000000 4.000000
v 1.500000 40.000000 4.000000
v -1.500000 40.000000 4.000000
v -1.500000 0.000000 4.000000
v -1.722521 0.000000 3.974928
v -1.722521 40.000000 3.974928
v -1.933884 0.000000 3.900969
v -1.933884 40.000000 3.900969
v -2.123490 0.000000 3.781832
v -2.123490 40.000000 3.781832
v -2.281832 40.000000 3.623490
v -2.281832 0.000000 3.623490
v -2.400969 0.000000 3.433884
v -2.400969 40.000000 3.433884
v -2.474928 40.000000 3.222521
v -2.474928 0.000000 3.222521
v -2.500000 40.000000 3.000000
v -2.500000 0.000000 3.000000
v -2.500000 40.000000 2.500000
v -2.500000 0.000000 2.500000
v -2.400000 40.000000 2.500000
v -2.400000 0.000000 2.500000
v -2.400000 40.000000 3.000000
v -2.400000 0.000000 3.000000
v -1.500000 0.000000 3.900000
v -1.700269 0.000000 3.877435
v -1.500000 40.000000 3.900000
v -1.700269 40.000000 3.877435
v -1.890495 0.000000 3.810872
v -1.890495 40.000000 3.810872
v -2.061141 0.000000 3.703648
v -2.061141 40.000000 3.703648
v -2.203648 40.000000 3.561141
v -2.203648 0.000000 3.561141
v -2.310872 40.000000 3.390495
v -2.310872 0.000000 3.390495
v -2.377435 0.000000 3.200269
v -2.377435 40.000000 3.200269
v 1.500000 40.000000 3.900000
v 1.500000 0.000000 3.900000
v 2.377435 40.000000 3.200269
v 2.377435 0.000000 3.200269
v 2.310872 0.000000 3.390495
v 2.310872 40.000000 3.390495
v 2.203648 0.000000 3.561141
v 2.203648 40.000000 3.561141
v 2.061141 0.000000 3.703648
v 2.061141 40.000000 3.703648
v 1.890495 0.000000 3.810872
v 1.890495 40.000000 3.810872
v 1.700269 0.000000 3.877435
v 1.700269 40.000000 3.877435
v -2.500000 40.000000 3.000000
v -2.400000 40.000000 2.500000
v -2.500000 40.000000 2.500000
v -2.400000 40.000000 3.000000
v -1.500000 40.000000 4.000000
v -1.500000 40.000000 3.900000
v 2.500000 40.000000 3.000000
v 2.500000 40.000000 2.500000
v 2.400000 40.000000 2.500000
v 2.400000 40.000000 3.000000
v 1.500000 40.000000 4.000000
v 1.500000 40.000000 3.900000
vn -1.000000 0.000000 0.000000
vn -1.000000 0.000000 0.000000
vn 0.000000 0.000000 -1.000000
vn 0.000000 0.000000 -1.000000
vn 1.000000 0.000000 0.000000
vn 1.000000 -0.000000 0.000000
vn 0.993712 0.000000 0.111965
vn 0.993712 -0.000000 0.111965
vn 0.943883 -0.000000 0.330279
vn 0.943883 0.000000 0.330279
vn 0.846725 -0.000000 0.532032
vn 0.846725 0.000000 0.532032
vn 0.707107 -0.000000 0.707107
vn 0.532032 -0.000000 0.846724
vn 0.707107 0.000000 0.707107
vn 0.532032 -0.000000 0.846724
vn 0.330279 -0.000000 0.943883
vn 0.330279 0.000000 0.943883
vn 0.111965 -0.000000 0.993712
vn 0.111965 0.000000 0.993712
vn 0.000000 -0.000000 1.000000
vn 0.000000 0.000000 1.000000
vn -0.111965 0.000000 0.993712
vn -0.111965 0.000000 0.993712
vn -0.330279 0.000000 0.943883
vn -0.330279 0.000000 0.943883
vn -0.532032 0.000000 0.846724
vn -0.707107 0.000000 0.707107
vn -0.532032 0.000000 0.846724
vn -0.707107 0.000000 0.707107
vn -0.846725 0.000000 0.532032
vn -0.943883 0.000000 0.330279
vn -0.846725 0.000000 0.532032
vn -0.993712 0.000000 0.111965
vn -0.943883 0.000000 0.330279
vn -0.993712 0.000000 0.111965
vn -1.000000 0.000000 0.000000
vn -1.000000 0.000000 0.000000
vn 0.000000 0.000000 -1.000000
vn 0.000000 0.000000 -1.000000
vn 1.000000 0.000000 0.000000
vn 1.000000 -0.000000 0.000000
vn 0.111965 0.000000 -0.993712
vn 0.111965 0.000000 -0.993712
vn 0.330279 0.000000 -0.943883
vn 0.330279 0.000000 -0.943883
vn 0.532033 0.000000 -0.846724
vn 0.707107 0.000000 -0.707107
vn 0.532033 0.000000 -0.846724
vn 0.846724 0.000000 -0.532032
vn 0.707107 0.000000 -0.707107
vn 0.846724 0.000000 -0.532032
vn 0.943883 0.000000 -0.330279
vn 0.943883 0.000000 -0.330279
vn 0.993712 0.000000 -0.111965
vn 0.993712 0.000000 -0.111965
vn 0.000000 0.000000 -1.000000
vn 0.000000 0.000000 -1.000000
vn -0.993712 -0.000000 -0.111965
vn -0.993712 0.000000 -0.111965
vn -0.943883 0.000000 -0.330279
vn -0.943883 0.000000 -0.330279
vn -0.846724 0.000000 -0.532032
vn -0.846724 0.000000 -0.532032
vn -0.707107 0.000000 -0.707107
vn -0.707107 0.000000 -0.707107
vn -0.532033 0.000000 -0.846724
vn -0.532033 0.000000 -0.846724
vn -0.330279 0.000000 -0.943883
vn -0.330279 0.000000 -0.943883
vn -0.111965 0.000000 -0.993712
vn -0.111965 0.000000 -0.993712
vn 0.000000 -1.000000 0.000000
vn 0.000000 -1.000000 0.000000
vn 0.000000 -1.000000 0.000000
vn 0.000000 -1.000000 0.000000
vn 0.000000 -1.000000 0.000000
vn 0.000000 -1.000000 0.000000
vn 0.000000 -1.000000 0.000000
vn 0.000000 -1.000000 0.000000
vn 0.000000 -1.000000 0.000000
vn 0.000000 -1.000000 0.000000
vn 0.000000 -1.000000 0.000000
vn 0.000000 -1.000000 0.000000
vn 0.000000 -1.000000 0.000000
vn 0.000000 -1.000000 0.000000
vn 0.000000 -1.000000 0.000000
vn 0.000000 -1.000000 0.000000
vn 0.000000 -1.000000 0.000000
vn 0.000000 -1.000000 0.000000
vn 0.000000 -1.000000 0.000000
vn 0.000000 -1.000000 0.000000
vn 0.000000 -1.000000 0.000000
vn 0.000000 -1.000000 0.000000
vn 0.000000 -1.000000 0.000000
vn 0.000000 -1.000000 0.000000
vn 0.000000 -1.000000 0.000000
vn 0.000000 -1.000000 0.000000
vn 0.000000 -1.000000 0.000000
vn 0.000000 -1.000000 0.000000
vn 0.000000 -1.000000 0.000000
vn 0.000000 -1.000000 0.000000
vn 0.000000 -1.000000 0.000000
vn 0.000000 -1.000000 0.000000
vn 0.000000 -1.000000 0.000000
vn 0.000000 -1.000000 0.000000
vn 0.000000 1.000000 0.000000
vn 0.000000 1.000000 0.000000
vn 0.000000 1.000000 0.000000
vn 0.000000 1.000000 0.000000
vn 0.000000 1.000000 0.000000
vn 0.000000 1.000000 0.000000
vn 0.000000 1.000000 0.000000
vn 0.000000 1.000000 0.000000
vn 0.000000 1.000000 0.000000
vn 0.000000 1.000000 0.000000
vn 0.000000 1.000000 0.000000
vn 0.000000 1.000000 0.000000
vn 0.000000 1.000000 0.000000
vn 0.000000 1.000000 0.000000
vn 0.000000 1.000000 0.000000
vn 0.000000 1.000000 0.000000
vn 0.000000 1.000000 0.000000
vn 0.000000 1.000000 0.000000
vn 0.000000 1.000000 0.000000
vn 0.000000 1.000000 0.000000
vn 0.000000 1.000000 0.000000
vn 0.000000 1.000000 0.000000
vn 0.000000 1.000000 0.000000
vn 0.000000 1.000000 0.000000
vn 0.000000 1.000000 0.000000
vn 0.000000 1.000000 0.000000
vn 0.000000 1.000000 0.000000
vn 0.000000 1.000000 0.000000
vn 0.000000 1.000000 0.000000
vn 0.000000 1.000000 0.000000
vn 0.000000 1.000000 0.000000
vn 0.000000 1.000000 0.000000
vn 0.000000 1.000000 0.000000
vn 0.000000 1.000000 0.000000
f 1//1 2//1 3//1
f 4//2 1//2 3//2
f 4//3 3//3 5//3
f 6//4 4//4 5//4
f 6//5 5//5 7//5
f 8//6 6//6 7//6
f 9//7 8//7 7//7
f 9//8 7//8 10//8
f 11//9 10//9 12//9
f 11//10 9//10 10//10
f 13//11 12//11 14//11
f 13//12 11//12 12//12
f 15//13 14//13 16//13
f 15//14 16//14 17//14
f 15//15 13//15 14//15
f 18//16 15//16 17//16
f 19//17 17//17 20//17
f 19//18 18//18 17//18
f 21//19 20//19 22//19
f 21//20 19//20 20//20
f 21//21 22//21 23//21
f 24//22 21//22 23//22
f 25//23 24//23 23//23
f 25//24 23//24 26//24
f 27//25 26//25 28//25
f 27//26 25//26 26//26
f 29//27 28//27 30//27
f 29//28 30//28 31//28
f 29//29 27//29 28//29
f 32//30 29//30 31//30
f 33//31 31//31 34//31
f 33//32 34//32 35//32
f 33//33 32//33 31//33
f 36//34 35//34 37//34
f 36//35 33//35 35//35
f 38//36 36//36 37//36
f 38//37 37//37 39//37
f 40//38 38//38 39//38
f 40//39 39//39 41//39
f 42//40 40//40 41//40
f 42//41 41//41 43//41
f 44//42 42//42 43//42
f 45//43 46//43 47//43
f 47//44 46//44 48//44
f 48//45 49//45 50//45
f 46//46 49//46 48//46
f 50//47 51//47 52//47
f 52//48 51//48 53//48
f 49//49 51//49 50//49
f 53//50 54//50 55//50
f 51//51 54//51 53//51
f 54//52 56//52 55//52
f 55//53 57//53 58//53
f 56//54 57//54 55//54
f 58//55 44//55 43//55
f 57//56 44//56 58//56
f 45//57 47//57 59//57
f 60//58 45//58 59//58
f 2//59 1//59 61//59
f 1//60 62//60 61//60
f 61//61 63//61 64//61
f 62//62 63//62 61//62
f 64//63 65//63 66//63
f 63//64 65//64 64//64
f 66//65 67//65 68//65
f 65//66 67//66 66//66
f 68//67 69//67 70//67
f 67//68 69//68 68//68
f 70//69 71//69 72//69
f 69//70 71//70 70//70
f 72//71 60//71 59//71
f 71//72 60//72 72//72
f 42//73 38//73 40//73
f 42//74 44//74 38//74
f 44//75 36//75 38//75
f 44//76 57//76 36//76
f 57//77 33//77 36//77
f 57//78 56//78 33//78
f 56//79 32//79 33//79
f 56//80 54//80 32//80
f 51//81 29//81 54//81
f 54//82 29//82 32//82
f 49//83 27//83 51//83
f 51//84 27//84 29//84
f 46//85 25//85 49//85
f 49//86 25//86 27//86
f 45//87 24//87 46//87
f 46//88 24//88 25//88
f 45//89 60//89 24//89
f 60//90 21//90 24//90
f 6//91 8//91 4//91
f 4//92 8//92 1//92
f 60//93 71//93 21//93
f 71//94 19//94 21//94
f 1//95 9//95 62//95
f 8//96 9//96 1//96
f 67//97 18//97 69//97
f 69//98 18//98 71//98
f 71//99 18//99 19//99
f 62//100 11//100 63//100
f 9//101 11//101 62//101
f 65//102 15//102 67//102
f 67//103 15//103 18//103
f 63//104 13//104 65//104
f 11//105 13//105 63//105
f 65//106 13//106 15//106
f 73//107 74//107 75//107
f 76//108 74//108 73//108
f 35//109 76//109 73//109
f 58//110 76//110 35//110
f 34//111 58//111 35//111
f 55//112 58//112 34//112
f 31//113 55//113 34//113
f 53//114 55//114 31//114
f 30//115 52//115 53//115
f 30//116 53//116 31//116
f 28//117 50//117 52//117
f 28//118 52//118 30//118
f 26//119 48//119 50//119
f 26//120 50//120 28//120
f 77//121 78//121 48//121
f 77//122 48//122 26//122
f 79//123 80//123 81//123
f 79//124 81//124 82//124
f 83//125 84//125 78//125
f 83//126 78//126 77//126
f 72//127 84//127 83//127
f 10//128 82//128 61//128
f 10//129 79//129 82//129
f 20//130 72//130 83//130
f 64//131 10//131 61//131
f 12//132 10//132 64//132
f 17//133 70//133 72//133
f 17//134 72//134 20//134
f 14//135 12//135 64//135
f 14//136 64//136 66//136
f 16//137 66//137 68//137
f 16//138 14//138 66//138
f 16//139 68//139 70//139
f 16//140 70//140 17//140
