vg 0
v -0.15 -0.1 0.3
v -0.15 0.3 0.3
v -0.15 0.1 0.3
v 0.15 0.1 0.3
v 0.15 0.3 0.3
v 0.15 -0.1 0.3
v 0.15 -0.3 0.3
v -0.15 -0.3 0.3
v -0.09 -0.09 1.57
v -0.09 0.09 1.65
v -0.09 0.09 1.57
v -0.15 0.15 1.57
v 0.15 -0.15 1.57
v 0.09 -0.09 1.57
v -0.15 -0.15 1.57
v 0.09 0.09 1.57
v 0.15 0.15 1.57
v 0.15 0.15 1.66
v 0.09 0.09 1.65
v -0.09 -0.09 1.65
v 0.09 -0.09 1.65
v -0.15 -0.15 1.66
v -0.15 0.15 1.85
v -0.15 0.15 1.66
v 0.15 -0.15 1.66
v 0.15 -0.15 1.85
v 0.15 0.15 1.85
v -0.15 -0.15 1.85
v -0.15 -0.4 1.55
v 0.15 -0.4 1.55
v 0.15 -0.4 1.3
v -0.15 0.4 1.55
v -0.15 0.4 1.3
v 0.15 0.4 1.3
v -0.15 -0.4 1.3
v 0.15 0.4 1.55
vg 1
v 0.1 -1.2 1.55
v 0.1 -1.2 1.36
v 0.1 -0.7 1.36
v -0.1 -1.2 1.36
v -0.1 -1.2 1.55
v 0.1 -0.7 1.55
v -0.1 -0.7 1.55
v -0.1 -0.7 1.36
vg 2
v 0.1 1.2 1.55
v -0.1 1.2 1.55
v -0.1 1.2 1.36
v 0.1 1.2 1.36
v -0.1 0.7 1.55
v -0.1 0.7 1.36
v 0.1 0.7 1.36
v 0.1 0.7 1.55
vg 3
v 0.1 -1.5 1.55
v -0.1 -1.5 1.55
v 0.1 -2 1.55
v 0.1 -2 1.36
v 0.1 -1.5 1.36
v -0.1 -2 1.36
v -0.1 -1.5 1.36
v -0.1 -2 1.55
vg 4
v 0.1 1.5 1.55
v -0.1 2 1.55
v -0.1 1.5 1.55
v -0.1 1.5 1.36
v 0.1 2 1.36
v 0.1 1.5 1.36
v 0.1 2 1.55
v -0.1 2 1.36
vg 5
v 0.15 -0.05 0
v -0.14 -0.07 -0.5
v -0.15 -0.05 0
v -0.15 -0.35 0
v 0.15 -0.35 0
v 0.14 -0.32 -0.5
v 0.14 -0.07 -0.5
v -0.14 -0.32 -0.5
vg 6
v -0.15 0.05 0
v 0.15 0.05 0
v 0.15 0.35 0
v -0.15 0.35 0
v -0.14 0.32 -0.5
v 0.14 0.07 -0.5
v 0.14 0.32 -0.5
v -0.14 0.07 -0.5
vg 7
v 0.1 -0.1 -0.8
v -0.1 -0.1 -0.8
v -0.1 -0.3 -0.8
v 0.1 -0.3 -0.8
vg 8
v -0.1 0.3 -0.8
v -0.1 0.1 -0.8
v 0.1 0.1 -0.8
v 0.1 0.3 -0.8
vg 9
v 0.12 -0.32 -1.4
v 0.45 -0.2 -1.32
v 0.1 -0.3 -1.3
v 0.12 -0.08 -1.4
v -0.12 -0.32 -1.4
v -0.12 -0.08 -1.4
v 0.1 -0.1 -1.3
v -0.1 -0.1 -1.3
v -0.1 -0.3 -1.3
v 0.5 -0.1 -1.4
v 0.45 -0.11 -1.32
v 0.5 -0.28 -1.4
vg 10
v 0.1 0.1 -1.3
v 0.45 0.2 -1.32
v 0.1 0.3 -1.3
v -0.12 0.08 -1.4
v 0.12 0.32 -1.4
v 0.12 0.08 -1.4
v -0.1 0.1 -1.3
v -0.12 0.32 -1.4
v -0.1 0.3 -1.3
v 0.5 0.1 -1.4
v 0.5 0.28 -1.4
v 0.45 0.11 -1.32
vg %Interpolate 5 7 0.331981
v 0.13 -0.08 -0.6
vg %Interpolate 5 7 0.331981
v -0.13 -0.08 -0.6
vg %Interpolate 5 7 0.664506
v -0.12 -0.3 -0.7
vg %Interpolate 5 7 0.33279
v -0.13 -0.31 -0.6
vg %Interpolate 5 7 0.33279
v 0.13 -0.31 -0.6
vg %Interpolate 5 7 0.664506
v 0.12 -0.3 -0.7
vg %Interpolate 5 7 0.663438
v 0.12 -0.09 -0.7
vg %Interpolate 5 7 0.663438
v -0.12 -0.09 -0.7
vg %Interpolate 6 8 0.33279
v 0.13 0.31 -0.6
vg %Interpolate 6 8 0.331981
v -0.13 0.08 -0.6
vg %Interpolate 6 8 0.663438
v 0.12 0.09 -0.7
vg %Interpolate 6 8 0.331981
v 0.13 0.08 -0.6
vg %Interpolate 6 8 0.33279
v -0.13 0.31 -0.6
vg %Interpolate 6 8 0.664506
v 0.12 0.3 -0.7
vg %Interpolate 6 8 0.664506
v -0.12 0.3 -0.7
vg %Interpolate 6 8 0.663438
v -0.12 0.09 -0.7
vg %Interpolate 1 3 0.666667
v -0.1 -1.4 1.55
vg %Interpolate 1 3 0.666667
v 0.1 -1.4 1.55
vg %Interpolate 2 4 0.666667
v -0.1 1.4 1.36
vg %Interpolate 2 4 0.666667
v 0.1 1.4 1.36
vg %Interpolate 2 4 0.666667
v 0.1 1.4 1.55
vg %Interpolate 2 4 0.666667
v -0.1 1.4 1.55
vg %Interpolate 2 4 0.333333
v 0.1 1.3 1.55
vg %Interpolate 2 4 0.333333
v -0.1 1.3 1.55
vg %Interpolate 2 4 0.333333
v -0.1 1.3 1.36
vg %Interpolate 2 4 0.333333
v 0.1 1.3 1.36
vg %Interpolate 0 2 0.658144
v 0.13 0.6 1.55
vg %Interpolate 0 2 0.658144
v -0.13 0.6 1.55
vg %Interpolate 0 2 0.330089
v 0.14 0.5 1.55
vg %Interpolate 0 2 0.658459
v 0.13 0.6 1.34
vg %Interpolate 0 2 0.658459
v -0.13 0.6 1.34
vg %Interpolate 0 2 0.330089
v -0.14 0.5 1.55
vg %Interpolate 0 2 0.330211
v 0.14 0.5 1.32
vg %Interpolate 0 2 0.330211
v -0.14 0.5 1.32
vg %Interpolate 1 3 0.333333
v -0.1 -1.3 1.36
vg %Interpolate 1 3 0.333333
v -0.1 -1.3 1.55
vg %Interpolate 1 3 0.666667
v 0.1 -1.4 1.36
vg %Interpolate 1 3 0.333333
v 0.1 -1.3 1.36
vg %Interpolate 1 3 0.666667
v -0.1 -1.4 1.36
vg %Interpolate 1 3 0.333333
v 0.1 -1.3 1.55
vg %Interpolate 0 1 0.658144
v 0.13 -0.6 1.55
vg %Interpolate 0 1 0.658459
v 0.13 -0.6 1.34
vg %Interpolate 0 1 0.658144
v -0.13 -0.6 1.55
vg %Interpolate 0 1 0.658459
v -0.13 -0.6 1.34
vg %Interpolate 0 1 0.330211
v 0.14 -0.5 1.32
vg %Interpolate 0 1 0.330211
v -0.14 -0.5 1.32
vg %Interpolate 0 1 0.330089
v 0.14 -0.5 1.55
vg %Interpolate 0 1 0.330089
v -0.14 -0.5 1.55
vn -0 0.9992 -0.04
vn -1 -0 -0
vn -0 -0 -1
vn -0 0.9864 0.1644
vn -0 0.9982 -0.0599
vn 1 -0 -0
vn -0 -0.9864 0.1644
vn 0.995 -0 -0.0995
vn 0.9998 -0 -0.02
vn -0.9998 -0 -0.02
vn -0 -0.9982 -0.0599
vn -0.995 -0 -0.0995
vn -0 0.995 -0.0995
vn -0 -0.995 -0.0995
vn 0.9806 -0 -0.1961
vn 0.2793 -0.9293 0.2417
vn -0.9806 -0 -0.1961
vn -0 -1 -0
vn -0 0.9806 0.1961
vn -0.9806 -0 0.1961
vn -0 -0.9806 0.1961
vn -0 -0.9992 -0.04
vn -0 1 -0
vn 0.057 -0 0.9984
vn 0.848 -0 0.53
vn 0.0571 -0 0.9984
vn 0.0519 0.9864 0.1558
vn 0.0396 -0.9783 0.2036
vn 0.0718 0.6825 0.7274
vn -0 -0 1
vn -0 0.1644 -0.9864
vn 0.1644 -0 -0.9864
vn -0.1644 -0 -0.9864
vn -0 -0.1644 -0.9864
vn -0 -0.0797 0.9968
vn -0 0.0797 0.9968
vn 0.995 0.0995 -0
vn -0.9578 0.2873 -0
vn 0.9578 0.2873 -0
vn -0 0.1961 -0.9806
vn -0.995 0.0995 -0
vn 0.9578 -0.2873 -0
vn -0 -0.1961 -0.9806
vn -0.9578 -0.2873 -0
vn 0.995 -0.0995 -0
vn -0.995 -0.0995 -0
vn 0.0718 -0.6825 0.7274
vn 0.0396 0.9783 0.2036
vn 0.0519 -0.9864 0.1558
vn 0.2793 0.9293 0.2417
vt 0.722976 0.476866
vt 0.663464 0.579555
vt 0.661412 0.476866
vt 0.261465 0.275976
vt 0.292247 0.33754
vt 0.271725 0.33754
vt 0.884949 0.898351
vt 0.864427 0.836787
vt 0.884949 0.836787
vt 0.794728 0.743664
vt 0.856292 0.806078
vt 0.794728 0.806078
vt 0.540263 0.605195
vt 0.480751 0.707987
vt 0.478698 0.605195
vt 0.302507 0.275976
vt 0.353811 0.33754
vt 0.456344 0.275976
vt 0.405041 0.33754
vt 0.415302 0.275976
vt 0.497387 0.275976
vt 0.466605 0.33754
vt 0.795232 0.169192
vt 0.856796 0.231605
vt 0.795232 0.231605
vt 0.548691 0.33754
vt 0.487127 0.33754
vt 0.210161 0.33754
vt 0.220422 0.275976
vt 0.292173 0.891345
vt 0.312797 0.940597
vt 0.292173 0.942649
vt 0.292173 0.665736
vt 0.347581 0.768363
vt 0.296278 0.768363
vt 0.446011 0.665736
vt 0.390603 0.768363
vt 0.384446 0.665736
vt 0.076919 0.611352
vt 0.017407 0.714143
vt 0.015354 0.611352
vt 0.384753 0.893397
vt 0.405377 0.938544
vt 0.384753 0.940597
vt 0.852692 0.282269
vt 0.797284 0.302893
vt 0.795232 0.282269
vt 0.36413 0.891345
vt 0.36413 0.942649
vt 0.015354 0.838344
vt 0.035978 0.893752
vt 0.015354 0.895804
vt 0.015354 0.926513
vt 0.036282 0.967556
vt 0.015354 0.969608
vt 0.035978 0.840396
vt 0.056602 0.8917
vt 0.312797 0.893397
vt 0.333421 0.938544
vt 0.85064 0.302893
vt 0.799336 0.323516
vt 0.764523 0.173438
vt 0.741372 0.243623
vt 0.744739 0.169192
vt 0.848588 0.323516
vt 0.803441 0.34414
vt 0.722771 0.971422
vt 0.743699 0.93038
vt 0.743699 0.971422
vt 0.710663 0.169192
vt 0.665516 0.189713
vt 0.661412 0.169192
vt 0.156879 0.423657
vt 0.107627 0.374405
vt 0.156879 0.374405
vt 0.741372 0.39945
vt 0.7623 0.444598
vt 0.741372 0.440493
vt 0.661617 0.861762
vt 0.682544 0.906909
vt 0.661617 0.902804
vt 0.916095 0.019459
vt 0.937023 0.064606
vt 0.916095 0.060501
vt 0.1999 0.891407
vt 0.220524 0.940658
vt 0.1999 0.94271
vt 0.78454 0.610328
vt 0.729132 0.712956
vt 0.722976 0.610328
vt 0.261465 0.665736
vt 0.201953 0.768425
vt 0.1999 0.665736
vt 0.107627 0.690288
vt 0.163035 0.792916
vt 0.111732 0.792916
vt 0.85064 0.395473
vt 0.799336 0.416096
vt 0.797284 0.395473
vt 0.852692 0.374849
vt 0.795232 0.374849
vt 0.478698 0.841346
vt 0.499322 0.896754
vt 0.478698 0.898806
vt 0.915657 0.836787
vt 0.936281 0.886038
vt 0.915657 0.88809
vt 0.710663 0.323029
vt 0.665516 0.34355
vt 0.661412 0.323029
vt 0.499322 0.843398
vt 0.519946 0.894702
vt 0.936281 0.838839
vt 0.956905 0.883986
vt 0.220524 0.893459
vt 0.241148 0.938606
vt 0.519741 0.738696
vt 0.49922 0.810638
vt 0.478698 0.738696
vt 0.794728 0.92906
vt 0.815655 0.970102
vt 0.794728 0.972154
vt 0.846364 0.972154
vt 0.867292 0.931112
vt 0.867292 0.972154
vt 0.848588 0.416096
vt 0.803441 0.43672
vt 0.107627 0.532347
vt 0.156879 0.581598
vt 0.107627 0.581598
vt 0.926592 0.286373
vt 0.94752 0.33152
vt 0.926592 0.327416
vt 0.926592 0.378646
vt 0.94752 0.423793
vt 0.926592 0.419689
vt 0.92814 0.614432
vt 0.949068 0.659579
vt 0.92814 0.655475
vt 0.975902 0.513804
vt 0.959485 0.476866
vt 0.975902 0.476866
vt 0.312768 0.015354
vt 0.507648 0.015354
vt 0.58966 0.610328
vt 0.692267 0.651371
vt 0.58966 0.651371
vt 0.661412 0.09744
vt 0.764019 0.138483
vt 0.661412 0.138483
vt 0.661617 0.954035
vt 0.680976 0.974556
vt 0.661617 0.972504
vt 0.115836 0.501638
vt 0.107627 0.423657
vt 0.722976 0.743664
vt 0.743497 0.815606
vt 0.725028 0.815606
vt 0.774644 0.554953
vt 0.75795 0.487021
vt 0.774552 0.476866
vt 0.959461 0.189713
vt 0.978821 0.169192
vt 0.978821 0.20613
vt 0.794728 0.093442
vt 0.811422 0.02551
vt 0.815687 0.097353
vt 0.14867 0.659579
vt 0.111732 0.659579
vt 0.741372 0.286515
vt 0.764523 0.356701
vt 0.741372 0.364637
vt 0.341425 0.811385
vt 0.292173 0.799072
vt 0.353738 0.799072
vt 0.341425 0.848324
vt 0.353738 0.860636
vt 0.304486 0.811385
vt 0.292173 0.860636
vt 0.304486 0.848324
vt 0.895883 0.33152
vt 0.883401 0.282269
vt 0.895883 0.294582
vt 0.984149 0.052293
vt 0.967731 0.015354
vt 0.984149 0.015354
vt 0.984208 0.955737
vt 0.967791 0.918799
vt 0.984208 0.918799
vt 0.984646 0.132253
vt 0.968229 0.095315
vt 0.984646 0.095315
vt 0.85424 0.671892
vt 0.815249 0.610328
vt 0.85424 0.610328
vt 0.895883 0.4241
vt 0.883401 0.374849
vt 0.895883 0.387162
vt 0.897431 0.659579
vt 0.884948 0.610328
vt 0.897431 0.622641
vt 0.899483 0.792916
vt 0.887001 0.743664
vt 0.899483 0.755977
vt 0.384446 0.860636
vt 0.446011 0.799072
vt 0.446011 0.860636
vt 0.146618 0.885189
vt 0.107627 0.823625
vt 0.146618 0.823625
vt 0.885386 0.076919
vt 0.846395 0.015354
vt 0.885386 0.015354
vt 0.833718 0.898351
vt 0.794728 0.836787
vt 0.833718 0.836787
vt 0.85682 0.476866
vt 0.805353 0.53843
vt 0.805353 0.476866
vt 0.558951 0.019459
vt 0.558951 0.070762
vt 0.1999 0.799134
vt 0.251368 0.860698
vt 0.1999 0.860698
vt 0.364071 0.070762
vt 0.34355 0.275976
vt 0.39478 0.070762
vt 0.446084 0.015354
vt 0.066658 0.24109
vt 0.025615 0.343697
vt 0.025615 0.24109
vt 0.1999 0.019459
vt 0.251204 0.015354
vt 0.117888 0.138483
vt 0.158931 0.117961
vt 0.158931 0.138483
vt 0.478698 0.574486
vt 0.540263 0.368249
vt 0.540263 0.574486
vt 0.015354 0.580643
vt 0.076919 0.374405
vt 0.076919 0.580643
vt 0.630703 0.179525
vt 0.58966 0.282132
vt 0.58966 0.179525
vt 0.630703 0.159004
vt 0.58966 0.159004
vt 0.478698 0.929515
vt 0.517689 0.970558
vt 0.478698 0.970558
vt 0.066658 0.220568
vt 0.025615 0.220568
vt 0.066658 0.200047
vt 0.025615 0.200047
vt 0.1999 0.470856
vt 0.238891 0.368249
vt 0.238891 0.470856
vt 0.37829 0.511899
vt 0.339299 0.53242
vt 0.339299 0.511899
vt 0.37829 0.53242
vt 0.339299 0.635027
vt 0.066658 0.179526
vt 0.025615 0.179526
vt 0.630703 0.138483
vt 0.58966 0.138483
vt 0.37829 0.491377
vt 0.339299 0.491377
vt 0.1999 0.491377
vt 0.238891 0.491377
vt 0.630703 0.117961
vt 0.58966 0.117961
vt 0.1999 0.53242
vt 0.238891 0.511899
vt 0.238891 0.53242
vt 0.1999 0.511899
vt 0.37829 0.470856
vt 0.339299 0.470856
vt 0.072814 0.056397
vt 0.025615 0.076919
vt 0.019459 0.056397
vt 0.238891 0.635027
vt 0.37829 0.368249
vt 0.339299 0.368249
vt 0.630703 0.015354
vt 0.58966 0.015354
vt 0.743395 0.846315
vt 0.722771 0.88941
vt 0.722771 0.846315
vt 0.916095 0.095315
vt 0.93752 0.134305
vt 0.916095 0.138409
vt 0.066658 0.076919
vt 0.951617 0.743664
vt 0.930192 0.782655
vt 0.930192 0.743664
vt 0.074866 0.035876
vt 0.017407 0.035876
vt 0.074866 0.786707
vt 0.019459 0.76578
vt 0.072814 0.76578
vt 0.066658 0.744852
vt 0.610284 0.857657
vt 0.630908 0.900752
vt 0.610284 0.904857
vt 0.117888 0.117961
vt 0.158931 0.015354
vt 0.764019 0.846315
vt 0.743395 0.893514
vt 0.015354 0.807635
vt 0.076919 0.807635
vt 0.076919 0.015354
vt 0.015354 0.015354
vt 0.2696 0.470856
vt 0.308591 0.368249
vt 0.308591 0.470856
vt 0.44799 0.491377
vt 0.408999 0.511899
vt 0.408999 0.491377
vt 0.58966 0.415448
vt 0.630703 0.312841
vt 0.630703 0.415448
vt 0.2696 0.491377
vt 0.308591 0.491377
vt 0.2696 0.53242
vt 0.308591 0.511899
vt 0.308591 0.53242
vt 0.44799 0.53242
vt 0.408999 0.635027
vt 0.408999 0.53242
vt 0.58966 0.93967
vt 0.628651 0.980712
vt 0.58966 0.980712
vt 0.58966 0.43597
vt 0.630703 0.43597
vt 0.2696 0.511899
vt 0.58966 0.456491
vt 0.630703 0.456491
vt 0.44799 0.511899
vt 0.117888 0.159004
vt 0.158931 0.159004
vt 0.107627 0.915898
vt 0.129052 0.954888
vt 0.107627 0.958993
vt 0.44799 0.470856
vt 0.408999 0.470856
vt 0.308591 0.635027
vt 0.58966 0.477012
vt 0.630703 0.477012
vt 0.111732 0.302654
vt 0.158931 0.282132
vt 0.165087 0.302654
vt 0.117888 0.282132
vt 0.158931 0.179525
vt 0.117888 0.179525
vt 0.44799 0.368249
vt 0.408999 0.368249
vt 0.593765 0.785093
vt 0.640964 0.764165
vt 0.64712 0.785093
vt 0.58966 0.579619
vt 0.630703 0.579619
vt 0.937082 0.918799
vt 0.915657 0.957789
vt 0.915657 0.918799
vt 0.591712 0.806021
vt 0.649172 0.806021
vt 0.107627 0.343697
vt 0.167139 0.323175
vt 0.169192 0.343697
vt 0.908129 0.169192
vt 0.928752 0.212286
vt 0.908129 0.216391
vt 0.58966 0.826949
vt 0.651224 0.826949
vt 0.908152 0.476866
vt 0.887529 0.519961
vt 0.887529 0.476866
vt 0.58966 0.857657
vt 0.58966 0.908961
vt 0.887505 0.169192
vt 0.887505 0.220495
vt 0.928776 0.476866
vt 0.908152 0.524065
vt 0.661412 0.015354
vt 0.764019 0.056397
vt 0.661412 0.056397
vt 0.58966 0.692414
vt 0.692267 0.733456
vt 0.58966 0.733456
vt 0.706559 0.34355
vt 0.665516 0.446157
vt 0.764019 0.09744
vt 0.706559 0.189713
vt 0.665516 0.29232
vt 0.692267 0.692414
vt 0.720924 0.579555
vt 0.864427 0.898351
vt 0.856292 0.743664
vt 0.53821 0.707987
vt 0.856796 0.169192
vt 0.53843 0.275976
vt 0.353738 0.665736
vt 0.441906 0.768363
vt 0.074866 0.714143
vt 0.405377 0.895449
vt 0.036282 0.926513
vt 0.056602 0.842448
vt 0.333421 0.89545
vt 0.764523 0.25156
vt 0.844483 0.34414
vt 0.722771 0.928327
vt 0.7623 0.395346
vt 0.682544 0.857657
vt 0.937023 0.015354
vt 0.780436 0.712956
vt 0.259412 0.768425
vt 0.169192 0.690288
vt 0.519946 0.845451
vt 0.956905 0.840891
vt 0.241148 0.895511
vt 0.517689 0.810638
vt 0.815655 0.92906
vt 0.846364 0.92906
vt 0.844483 0.43672
vt 0.156879 0.532347
vt 0.94752 0.282269
vt 0.94752 0.374542
vt 0.949068 0.610328
vt 0.959485 0.513804
vt 0.692267 0.610328
vt 0.680976 0.937618
vt 0.152774 0.501638
vt 0.764019 0.743664
vt 0.753685 0.558864
vt 0.959461 0.171244
vt 0.794819 0.015354
vt 0.761157 0.282269
vt 0.883401 0.343833
vt 0.967731 0.052293
vt 0.967791 0.955737
vt 0.968229 0.132253
vt 0.815249 0.671892
vt 0.883401 0.436413
vt 0.884948 0.671892
vt 0.887001 0.805229
vt 0.384446 0.799072
vt 0.107627 0.885189
vt 0.846395 0.076919
vt 0.794728 0.898351
vt 0.85682 0.53843
vt 0.251368 0.799134
vt 0.364071 0.019459
vt 0.39478 0.019459
vt 0.066658 0.343697
vt 0.1999 0.070762
vt 0.478698 0.368249
vt 0.015354 0.374405
vt 0.630703 0.282132
vt 0.517689 0.929515
vt 0.1999 0.368249
vt 0.37829 0.635027
vt 0.1999 0.635027
vt 0.93752 0.095315
vt 0.951617 0.786759
vt 0.017407 0.786707
vt 0.025615 0.744852
vt 0.630908 0.857657
vt 0.117888 0.015354
vt 0.764019 0.897619
vt 0.2696 0.368249
vt 0.58966 0.312841
vt 0.44799 0.635027
vt 0.628651 0.93967
vt 0.129052 0.915898
vt 0.2696 0.635027
vt 0.599921 0.764165
vt 0.937082 0.961894
vt 0.10968 0.323175
vt 0.928752 0.169192
vt 0.928776 0.528169
vt 0.764019 0.015354
vt 0.706559 0.446157
vt 0.706559 0.29232
f 69/1/1 70/2/1 71/3/1
f 1/4/2 77/5/2 71/6/2
f 78/7/3 71/8/3 77/9/3
f 2/10/4 79/11/4 80/12/4
f 79/13/5 81/14/5 80/15/5
f 3/16/2 80/17/2 77/5/2
f 4/18/6 79/19/6 5/20/6
f 6/21/6 78/22/6 4/18/6
f 7/23/7 72/24/7 73/25/7
f 6/21/6 73/26/6 69/27/6
f 1/4/2 72/28/2 8/29/2
f 74/30/8 117/31/8 75/32/8
f 69/33/9 74/34/9 75/35/9
f 71/36/10 76/37/10 72/38/10
f 72/39/11 74/40/11 73/41/11
f 118/42/12 119/43/12 120/44/12
f 75/45/13 118/46/13 70/47/13
f 70/48/12 120/44/12 76/49/12
f 76/50/14 121/51/14 74/52/14
f 122/53/15 85/54/15 123/55/15
f 120/56/14 122/57/14 121/51/14
f 121/58/8 123/59/8 117/31/8
f 117/60/13 124/61/13 118/46/13
f 93/62/16 94/63/16 95/64/16
f 123/65/13 86/66/13 124/61/13
f 119/67/17 86/68/17 87/69/17
f 119/70/18 88/71/18 122/72/18
f 96/73/3 97/74/3 98/75/3
f 99/76/19 98/77/19 100/78/19
f 100/79/20 97/80/20 101/81/20
f 101/82/21 93/83/21 95/84/21
f 82/85/8 125/86/8 83/87/8
f 78/88/9 83/89/9 79/90/9
f 77/91/22 82/92/22 78/93/22
f 77/94/10 81/95/10 84/96/10
f 126/97/14 127/98/14 128/99/14
f 84/100/14 128/99/14 82/101/14
f 83/102/13 129/103/13 81/104/13
f 81/105/12 126/106/12 84/107/12
f 130/108/23 89/109/23 131/110/23
f 125/111/13 131/112/13 129/103/13
f 129/113/12 132/114/12 126/106/12
f 128/115/8 130/116/8 125/86/8
f 105/117/24 106/118/24 107/119/24
f 131/120/17 90/121/17 132/122/17
f 130/123/15 91/124/15 92/125/15
f 132/126/14 91/127/14 127/98/14
f 108/128/3 109/129/3 110/130/3
f 111/131/21 110/132/21 105/133/21
f 107/134/19 112/135/19 113/136/19
f 113/137/20 108/138/20 111/139/20
f 9/140/2 10/141/2 11/142/2
f 1/4/2 12/143/2 3/16/2
f 4/18/6 13/144/6 6/21/6
f 88/145/6 99/146/6 85/147/6
f 91/148/6 107/149/6 92/150/6
f 94/151/25 102/152/25 103/153/25
f 96/73/3 104/154/3 93/155/3
f 99/156/26 94/157/26 103/158/26
f 96/159/27 103/160/27 102/161/27
f 106/162/25 114/163/25 115/164/25
f 110/165/28 116/166/28 105/167/28
f 110/130/3 115/168/3 114/169/3
f 109/170/29 106/171/29 115/172/29
f 14/173/30 15/174/30 13/175/30
f 16/176/30 13/175/30 17/177/30
f 9/178/30 12/179/30 15/174/30
f 11/180/30 17/177/30 12/179/30
f 10/181/31 18/182/31 19/183/31
f 14/184/18 20/185/18 9/186/18
f 11/187/23 19/188/23 16/189/23
f 16/190/6 21/191/6 14/192/6
f 22/193/2 23/194/2 24/195/2
f 19/196/32 25/197/32 21/198/32
f 20/199/33 24/200/33 10/201/33
f 21/202/34 22/203/34 20/204/34
f 23/205/30 26/206/30 27/207/30
f 25/208/18 28/209/18 22/210/18
f 24/211/23 27/212/23 18/213/23
f 18/214/6 26/215/6 25/216/6
f 29/217/35 13/218/35 15/219/35
f 6/21/6 30/220/6 31/221/6
f 17/222/36 32/223/36 12/224/36
f 12/143/2 33/225/2 2/226/2
f 34/227/6 17/228/6 4/18/6
f 61/229/30 62/230/30 63/231/30
f 8/29/2 29/232/2 15/233/2
f 133/234/30 53/235/30 134/236/30
f 2/237/13 34/238/13 5/239/13
f 7/240/14 35/241/14 8/242/14
f 64/243/3 65/244/3 66/245/3
f 135/246/3 66/245/3 136/247/3
f 67/248/23 68/249/23 62/250/23
f 137/251/30 63/231/30 138/252/30
f 139/253/30 138/252/30 140/254/30
f 63/255/2 68/256/2 64/257/2
f 136/258/6 61/259/6 137/260/6
f 66/261/6 67/262/6 61/259/6
f 45/263/30 140/254/30 46/264/30
f 141/265/3 136/247/3 142/266/3
f 142/267/6 137/260/6 139/268/6
f 138/269/2 64/257/2 135/270/2
f 47/271/3 142/266/3 48/272/3
f 46/273/2 141/274/2 47/275/2
f 140/276/2 135/270/2 141/274/2
f 48/277/6 139/268/6 45/278/6
f 143/279/30 49/280/30 144/281/30
f 50/282/2 46/273/2 47/275/2
f 51/283/6 45/278/6 52/284/6
f 50/285/3 48/272/3 51/286/3
f 145/287/37 146/288/37 143/289/37
f 144/290/38 50/291/38 147/292/38
f 52/293/30 46/264/30 49/280/30
f 143/294/39 51/295/39 52/296/39
f 145/297/30 144/281/30 148/298/30
f 149/299/40 147/300/40 146/301/40
f 147/300/40 51/302/40 146/301/40
f 148/303/41 147/304/41 150/305/41
f 54/306/30 55/307/30 53/235/30
f 36/308/37 149/309/37 145/287/37
f 33/310/40 149/299/40 34/311/40
f 36/312/30 148/298/30 32/313/30
f 53/314/6 56/315/6 57/316/6
f 151/317/2 133/318/2 152/319/2
f 57/320/3 58/321/3 59/322/3
f 134/323/6 57/316/6 153/324/6
f 37/325/6 154/326/6 38/327/6
f 59/328/2 60/329/2 54/330/2
f 60/331/18 56/332/18 55/333/18
f 153/334/3 59/322/3 155/335/3
f 156/336/6 153/324/6 154/326/6
f 154/337/3 155/335/3 151/338/3
f 155/339/2 54/330/2 133/318/2
f 152/340/30 134/236/30 156/341/30
f 157/342/42 39/343/42 158/344/42
f 40/345/2 152/319/2 41/346/2
f 39/347/6 37/325/6 38/327/6
f 38/348/3 151/338/3 40/349/3
f 159/350/30 42/351/30 157/352/30
f 43/353/30 37/354/30 42/351/30
f 41/355/30 156/341/30 37/354/30
f 44/356/2 41/346/2 43/357/2
f 158/358/43 44/359/43 160/360/43
f 39/361/3 40/349/3 44/362/3
f 159/363/44 44/364/44 43/365/44
f 161/366/43 160/360/43 162/367/43
f 29/368/30 163/369/30 30/370/30
f 163/371/45 158/372/45 161/373/45
f 31/374/43 162/367/43 35/375/43
f 164/376/46 160/377/46 159/378/46
f 163/369/30 159/350/30 157/352/30
f 32/379/41 150/305/41 33/380/41
f 30/381/45 161/373/45 31/382/45
f 29/383/46 162/384/46 164/376/46
f 89/385/2 111/386/2 90/387/2
f 86/388/2 101/389/2 87/390/2
f 92/391/23 113/392/23 89/109/23
f 90/387/18 105/393/18 91/148/18
f 87/394/18 95/395/18 88/71/18
f 85/147/23 100/396/23 86/388/23
f 69/1/1 75/397/1 70/2/1
f 1/4/2 3/16/2 77/5/2
f 78/7/3 69/398/3 71/8/3
f 2/10/4 5/399/4 79/11/4
f 79/13/5 83/400/5 81/14/5
f 3/16/2 2/226/2 80/17/2
f 4/18/6 78/22/6 79/19/6
f 6/21/6 69/27/6 78/22/6
f 7/23/7 8/401/7 72/24/7
f 6/21/6 7/402/6 73/26/6
f 1/4/2 71/6/2 72/28/2
f 74/30/8 121/58/8 117/31/8
f 69/33/9 73/403/9 74/34/9
f 71/36/10 70/404/10 76/37/10
f 72/39/11 76/405/11 74/40/11
f 118/42/12 124/406/12 119/43/12
f 75/45/13 117/60/13 118/46/13
f 70/48/12 118/42/12 120/44/12
f 76/50/14 120/56/14 121/51/14
f 122/53/15 88/407/15 85/54/15
f 120/56/14 119/408/14 122/57/14
f 121/58/8 122/409/8 123/59/8
f 117/60/13 123/65/13 124/61/13
f 93/62/47 104/410/47 94/63/47
f 123/65/13 85/411/13 86/66/13
f 119/67/17 124/412/17 86/68/17
f 119/70/18 87/394/18 88/71/18
f 96/73/3 93/155/3 97/74/3
f 99/76/19 96/413/19 98/77/19
f 100/79/20 98/414/20 97/80/20
f 101/82/21 97/415/21 93/83/21
f 82/85/8 128/115/8 125/86/8
f 78/88/9 82/416/9 83/89/9
f 77/91/22 84/417/22 82/92/22
f 77/94/10 80/418/10 81/95/10
f 126/97/14 132/126/14 127/98/14
f 84/100/14 126/97/14 128/99/14
f 83/102/13 125/111/13 129/103/13
f 81/105/12 129/113/12 126/106/12
f 130/108/23 92/391/23 89/109/23
f 125/111/13 130/419/13 131/112/13
f 129/113/12 131/420/12 132/114/12
f 128/115/8 127/421/8 130/116/8
f 105/117/26 116/422/26 106/118/26
f 131/120/17 89/423/17 90/121/17
f 130/123/15 127/424/15 91/124/15
f 132/126/14 90/425/14 91/127/14
f 108/128/3 112/426/3 109/129/3
f 111/131/21 108/427/21 110/132/21
f 107/134/19 109/428/19 112/135/19
f 113/137/20 112/429/20 108/138/20
f 9/140/2 20/430/2 10/141/2
f 1/4/2 15/233/2 12/143/2
f 4/18/6 17/228/6 13/144/6
f 88/145/6 95/431/6 99/146/6
f 91/148/6 105/393/6 107/149/6
f 94/151/25 104/432/25 102/152/25
f 96/73/3 102/433/3 104/154/3
f 99/156/24 95/434/24 94/157/24
f 96/159/48 99/435/48 103/160/48
f 106/162/25 116/436/25 114/163/25
f 110/165/49 114/437/49 116/166/49
f 110/130/3 109/129/3 115/168/3
f 109/170/50 107/438/50 106/171/50
f 14/173/30 9/178/30 15/174/30
f 16/176/30 14/173/30 13/175/30
f 9/178/30 11/180/30 12/179/30
f 11/180/30 16/176/30 17/177/30
f 10/181/31 24/439/31 18/182/31
f 14/184/18 21/440/18 20/185/18
f 11/187/23 10/441/23 19/188/23
f 16/190/6 19/442/6 21/191/6
f 22/193/2 28/443/2 23/194/2
f 19/196/32 18/444/32 25/197/32
f 20/199/33 22/445/33 24/200/33
f 21/202/34 25/446/34 22/203/34
f 23/205/30 28/447/30 26/206/30
f 25/208/18 26/448/18 28/209/18
f 24/211/23 23/449/23 27/212/23
f 18/214/6 27/450/6 26/215/6
f 29/217/35 30/451/35 13/218/35
f 31/221/6 7/402/6 6/21/6
f 6/21/6 13/144/6 30/220/6
f 17/222/36 36/452/36 32/223/36
f 2/226/2 3/16/2 12/143/2
f 12/143/2 32/453/2 33/225/2
f 4/18/6 5/20/6 34/227/6
f 34/227/6 36/454/6 17/228/6
f 61/229/30 67/455/30 62/230/30
f 15/233/2 1/4/2 8/29/2
f 8/29/2 35/456/2 29/232/2
f 133/234/30 54/306/30 53/235/30
f 2/237/13 33/457/13 34/238/13
f 7/240/14 31/458/14 35/241/14
f 64/243/3 68/459/3 65/244/3
f 135/246/3 64/243/3 66/245/3
f 67/248/23 65/460/23 68/249/23
f 137/251/30 61/229/30 63/231/30
f 139/253/30 137/251/30 138/252/30
f 63/255/2 62/461/2 68/256/2
f 136/258/6 66/261/6 61/259/6
f 66/261/6 65/462/6 67/262/6
f 45/263/30 139/253/30 140/254/30
f 141/265/3 135/246/3 136/247/3
f 142/267/6 136/258/6 137/260/6
f 138/269/2 63/255/2 64/257/2
f 47/271/3 141/265/3 142/266/3
f 46/273/2 140/276/2 141/274/2
f 140/276/2 138/269/2 135/270/2
f 48/277/6 142/267/6 139/268/6
f 143/279/30 52/293/30 49/280/30
f 50/282/2 49/463/2 46/273/2
f 51/283/6 48/277/6 45/278/6
f 50/285/3 47/271/3 48/272/3
f 145/287/37 149/309/37 146/288/37
f 144/290/38 49/464/38 50/291/38
f 52/293/30 45/263/30 46/264/30
f 143/294/39 146/465/39 51/295/39
f 145/297/30 143/279/30 144/281/30
f 149/299/40 150/466/40 147/300/40
f 147/300/40 50/467/40 51/302/40
f 148/303/41 144/468/41 147/304/41
f 54/306/30 60/469/30 55/307/30
f 36/308/37 34/470/37 149/309/37
f 33/310/40 150/466/40 149/299/40
f 36/312/30 145/297/30 148/298/30
f 53/314/6 55/471/6 56/315/6
f 151/317/2 155/339/2 133/318/2
f 57/320/3 56/472/3 58/321/3
f 134/323/6 53/314/6 57/316/6
f 37/325/6 156/336/6 154/326/6
f 59/328/2 58/473/2 60/329/2
f 60/331/18 58/474/18 56/332/18
f 153/334/3 57/320/3 59/322/3
f 156/336/6 134/323/6 153/324/6
f 154/337/3 153/334/3 155/335/3
f 155/339/2 59/328/2 54/330/2
f 152/340/30 133/234/30 134/236/30
f 157/342/42 42/475/42 39/343/42
f 40/345/2 151/317/2 152/319/2
f 39/347/6 42/476/6 37/325/6
f 38/348/3 154/337/3 151/338/3
f 159/350/30 43/353/30 42/351/30
f 43/353/30 41/355/30 37/354/30
f 41/355/30 152/340/30 156/341/30
f 44/356/2 40/345/2 41/346/2
f 158/358/43 39/477/43 44/359/43
f 39/361/3 38/348/3 40/349/3
f 159/363/44 160/478/44 44/364/44
f 161/366/43 158/358/43 160/360/43
f 29/368/30 164/479/30 163/369/30
f 163/371/45 157/480/45 158/372/45
f 31/374/43 161/366/43 162/367/43
f 164/376/46 162/384/46 160/377/46
f 163/369/30 164/479/30 159/350/30
f 32/379/41 148/303/41 150/305/41
f 30/381/45 163/371/45 161/373/45
f 29/383/46 35/481/46 162/384/46
f 89/385/2 113/482/2 111/386/2
f 86/388/2 100/396/2 101/389/2
f 92/391/23 107/483/23 113/392/23
f 90/387/18 111/386/18 105/393/18
f 87/394/18 101/484/18 95/395/18
f 85/147/23 99/146/23 100/396/23
