# Created by FreeCAD <http://www.freecad.org>
v -0.400000 0.219134 1.125483
v -0.400000 0.196077 1.129135
v -0.400000 0.207822 1.128674
v -0.400000 0.184549 1.126842
v -0.400000 0.164645 1.114645
v -0.400000 0.173875 1.121921
v -0.400000 0.229389 1.119740
v -0.400000 0.238020 1.111762
v -0.400000 0.244550 1.101989
v -0.400000 0.248618 1.090962
v -0.400000 0.250000 1.079289
v -0.400000 -0.235355 0.714645
v -0.400000 -0.246194 0.698424
v -0.400000 -0.241573 0.707068
v -0.400000 -0.249039 0.689044
v -0.400000 -0.250000 0.679289
v -0.400000 0.250000 0.000000
v -0.400000 -0.250000 0.000000
v 0.400000 -0.235355 0.714645
v 0.400000 0.164645 1.114645
v 0.400000 -0.241573 0.707068
v 0.400000 -0.246194 0.698424
v 0.400000 -0.249039 0.689044
v 0.400000 -0.250000 0.679289
v 0.400000 0.173875 1.121921
v 0.400000 0.184549 1.126842
v 0.400000 0.196077 1.129135
v 0.400000 0.207822 1.128674
v 0.400000 0.219134 1.125483
v 0.400000 0.229389 1.119740
v 0.400000 0.238020 1.111762
v 0.400000 0.244550 1.101989
v 0.400000 0.248618 1.090962
v 0.400000 0.250000 1.079289
v 0.400000 -0.250000 0.000000
v 0.400000 0.250000 0.000000
vn -1.000000 0.000000 0.000000
vn -1.000000 0.000000 0.000000
vn -1.000000 0.000000 0.000000
vn -1.000000 -0.000000 0.000000
vn -1.000000 0.000000 0.000000
vn -1.000000 0.000000 0.000000
vn -1.000000 0.000000 0.000000
vn -1.000000 0.000000 0.000000
vn -1.000000 -0.000000 0.000000
vn -1.000000 -0.000000 0.000000
vn -1.000000 0.000000 0.000000
vn -1.000000 0.000000 0.000000
vn -1.000000 0.000000 0.000000
vn -1.000000 0.000000 -0.000000
vn -1.000000 0.000000 -0.000000
vn -1.000000 0.000000 0.000000
vn 0.000000 -0.707107 0.707107
vn 0.000000 -0.707107 0.707107
vn 0.000000 -0.773010 0.634394
vn 0.000000 -0.773010 0.634394
vn 0.000000 -0.881921 0.471396
vn 0.000000 -0.881921 0.471396
vn 0.000000 -0.956941 0.290284
vn 0.000000 -0.956941 0.290284
vn 0.000000 -0.995185 0.098018
vn 0.000000 -0.995185 0.098018
vn 0.000000 -0.619093 0.785318
vn 0.000000 -0.619093 0.785318
vn 0.000000 -0.418661 0.908142
vn 0.000000 -0.418661 0.908142
vn 0.000000 -0.195086 0.980786
vn 0.000000 -0.195086 0.980786
vn -0.000000 0.039250 0.999229
vn 0.000000 0.039250 0.999229
vn -0.000000 0.271447 0.962453
vn 0.000000 0.271447 0.962453
vn -0.000000 0.488622 0.872495
vn 0.000000 0.488622 0.872495
vn -0.000000 0.678800 0.734323
vn 0.000000 0.678800 0.734323
vn -0.000000 0.831470 0.555570
vn 0.000000 0.831470 0.555570
vn -0.000000 0.938191 0.346118
vn 0.000000 0.938191 0.346118
vn -0.000000 0.993069 0.117537
vn 0.000000 0.993069 0.117537
vn 0.000000 -1.000000 0.000000
vn 0.000000 -1.000000 0.000000
vn 0.000000 1.000000 -0.000000
vn 0.000000 1.000000 0.000000
vn 0.000000 0.000000 -1.000000
vn 0.000000 0.000000 -1.000000
vn 1.000000 0.000000 0.000000
vn 1.000000 0.000000 0.000000
vn 1.000000 -0.000000 0.000000
vn 1.000000 -0.000000 0.000000
vn 1.000000 -0.000000 0.000000
vn 1.000000 0.000000 0.000000
vn 1.000000 0.000000 0.000000
vn 1.000000 0.000000 0.000000
vn 1.000000 0.000000 0.000000
vn 1.000000 0.000000 0.000000
vn 1.000000 -0.000000 0.000000
vn 1.000000 0.000000 0.000000
vn 1.000000 0.000000 0.000000
vn 1.000000 0.000000 0.000000
vn 1.000000 -0.000000 0.000000
vn 1.000000 -0.000000 0.000000
f 1//1 2//1 3//1
f 4//2 5//2 6//2
f 2//3 5//3 4//3
f 7//4 5//4 1//4
f 8//5 5//5 7//5
f 9//6 5//6 8//6
f 10//7 5//7 9//7
f 11//8 5//8 10//8
f 1//9 5//9 2//9
f 11//10 12//10 5//10
f 12//11 13//11 14//11
f 12//12 15//12 13//12
f 12//13 16//13 15//13
f 11//14 17//14 12//14
f 12//15 17//15 16//15
f 17//16 18//16 16//16
f 19//17 20//17 12//17
f 12//18 20//18 5//18
f 19//19 14//19 21//19
f 12//20 14//20 19//20
f 21//21 13//21 22//21
f 14//22 13//22 21//22
f 22//23 15//23 23//23
f 13//24 15//24 22//24
f 23//25 16//25 24//25
f 15//26 16//26 23//26
f 6//27 20//27 25//27
f 6//28 5//28 20//28
f 4//29 25//29 26//29
f 4//30 6//30 25//30
f 2//31 26//31 27//31
f 2//32 4//32 26//32
f 3//33 27//33 28//33
f 3//34 2//34 27//34
f 1//35 28//35 29//35
f 1//36 3//36 28//36
f 7//37 29//37 30//37
f 7//38 1//38 29//38
f 8//39 30//39 31//39
f 8//40 7//40 30//40
f 9//41 31//41 32//41
f 9//42 8//42 31//42
f 10//43 32//43 33//43
f 10//44 9//44 32//44
f 11//45 33//45 34//45
f 11//46 10//46 33//46
f 18//47 35//47 16//47
f 16//48 35//48 24//48
f 36//49 17//49 34//49
f 34//50 17//50 11//50
f 17//51 36//51 18//51
f 18//52 36//52 35//52
f 20//53 27//53 25//53
f 25//54 27//54 26//54
f 21//55 24//55 19//55
f 22//56 24//56 21//56
f 23//57 24//57 22//57
f 27//58 29//58 28//58
f 29//59 31//59 30//59
f 19//60 34//60 20//60
f 31//61 34//61 32//61
f 32//62 34//62 33//62
f 20//63 34//63 27//63
f 27//64 34//64 29//64
f 29//65 34//65 31//65
f 35//66 36//66 24//66
f 24//67 36//67 19//67
f 19//68 36//68 34//68
