# Blender 3.6.0
# www.blender.org
o ShipFloorComm_Raw
v -0.500000 0.500000 1.000000
v -0.500000 0.300000 0.800000
v -0.500000 0.300000 1.000000
v -0.500000 0.500000 0.200000
v -0.500000 -0.300000 1.000000
v -0.500000 -0.300000 0.800000
v -0.500000 -0.500000 1.000000
v -0.500000 -0.500000 0.200000
v -0.300000 -0.500000 0.800000
v -0.300000 -0.500000 1.000000
v 0.300000 -0.500000 1.000000
v 0.300000 -0.500000 0.800000
v 0.500000 -0.500000 1.000000
v 0.500000 -0.500000 0.200000
v -0.498904 -0.498904 0.179095
v -0.497178 0.497178 0.166522
v -0.495630 -0.495630 0.158418
v -0.488793 0.488793 0.133990
v -0.486795 -0.486795 0.128533
v -0.474652 0.474652 0.102549
v -0.473013 -0.473013 0.099669
v -0.454717 0.454717 0.073261
v -0.454209 -0.454209 0.072644
v -0.430509 -0.430509 0.048450
v -0.429071 0.429071 0.047223
v -0.402336 -0.402336 0.028165
v -0.398128 0.398128 0.025728
v -0.370455 -0.370455 0.012821
v -0.362750 0.362750 0.010099
v -0.335806 -0.335806 0.003231
v -0.331778 0.331778 0.002541
v -0.300000 -0.300000 0.000000
v -0.300000 0.300000 0.000000
v -0.300000 -0.300000 1.000000
v 0.500000 0.500000 1.000000
v 0.300000 0.500000 0.800000
v 0.300000 0.500000 1.000000
v 0.500000 0.500000 0.200000
v -0.300000 0.500000 1.000000
v -0.300000 0.500000 0.800000
v -0.300000 -0.300000 0.800000
v -0.300000 0.300000 1.000000
v 0.300000 -0.300000 0.800000
v -0.300000 0.300000 0.800000
v 0.300000 0.300000 0.800000
v 0.500000 0.300000 0.800000
v 0.500000 -0.300000 0.800000
v 0.500000 -0.300000 1.000000
v 0.500000 0.300000 1.000000
v 0.335806 -0.335806 0.003231
v 0.300000 -0.300000 0.000000
v 0.370455 -0.370455 0.012821
v 0.402336 -0.402336 0.028165
v 0.430509 -0.430509 0.048450
v 0.454209 -0.454209 0.072644
v 0.473013 -0.473013 0.099669
v 0.486795 -0.486795 0.128533
v 0.495630 -0.495630 0.158418
v 0.498904 -0.498904 0.179095
v 0.300000 -0.300000 1.000000
v 0.300000 0.300000 0.000000
v 0.335806 0.335806 0.003231
v 0.370455 0.370455 0.012821
v 0.402336 0.402336 0.028165
v 0.430509 0.430509 0.048450
v 0.454209 0.454209 0.072644
v 0.473013 0.473013 0.099669
v 0.486795 0.486795 0.128533
v 0.495630 0.495630 0.158418
v 0.498904 0.498904 0.179095
v 0.300000 0.300000 1.000000
vn -1.0000 -0.0000 -0.0000
vn -0.0000 -1.0000 -0.0000
vn -0.9965 0.0007 -0.0841
vn -0.9986 -0.0000 -0.0524
vn -0.9683 0.0005 -0.2497
vn -0.9877 -0.0003 -0.1564
vn -0.9119 0.0004 -0.4103
vn -0.9589 -0.0004 -0.2836
vn -0.8266 0.0003 -0.5628
vn -0.9024 -0.0003 -0.4310
vn -0.8208 -0.0001 -0.5712
vn -0.7124 0.0002 -0.7018
vn -0.7144 0.0001 -0.6997
vn -0.5702 0.0005 -0.8215
vn -0.5842 -0.0002 -0.8116
vn -0.4034 0.0008 -0.9150
vn -0.4333 -0.0005 -0.9013
vn -0.2367 0.0004 -0.9716
vn -0.2660 -0.0008 -0.9640
vn -0.0797 -0.0000 -0.9968
vn -0.0894 -0.0005 -0.9960
vn -0.0000 -0.0000 1.0000
vn -0.0000 1.0000 -0.0000
vn 1.0000 -0.0000 -0.0000
vn -0.0000 -0.0899 -0.9960
vn -0.0000 -0.2667 -0.9638
vn -0.0000 -0.4337 -0.9011
vn -0.0000 -0.5843 -0.8115
vn -0.0000 -0.7144 -0.6998
vn -0.0000 -0.8208 -0.5711
vn -0.0000 -0.9024 -0.4309
vn -0.0000 -0.9590 -0.2835
vn -0.0000 -0.9877 -0.1564
vn -0.0000 -0.9986 -0.0524
vn 0.0005 0.0894 -0.9960
vn -0.0000 0.0797 -0.9968
vn 0.0008 0.2660 -0.9640
vn -0.0004 0.2367 -0.9716
vn 0.0005 0.4333 -0.9013
vn -0.0008 0.4034 -0.9150
vn 0.0002 0.5842 -0.8116
vn -0.0005 0.5702 -0.8215
vn -0.0001 0.7144 -0.6997
vn 0.0001 0.8208 -0.5712
vn -0.0002 0.7124 -0.7018
vn 0.0003 0.9024 -0.4310
vn -0.0003 0.8266 -0.5628
vn 0.0004 0.9589 -0.2836
vn -0.0004 0.9119 -0.4103
vn 0.0003 0.9877 -0.1564
vn -0.0005 0.9683 -0.2497
vn -0.0000 0.9986 -0.0524
vn -0.0007 0.9965 -0.0841
vn -0.0000 -0.0000 -1.0000
vn 0.0899 -0.0000 -0.9960
vn 0.2667 -0.0000 -0.9638
vn 0.4337 -0.0000 -0.9011
vn 0.5843 -0.0000 -0.8115
vn 0.7144 -0.0000 -0.6998
vn 0.8208 -0.0000 -0.5711
vn 0.9024 -0.0000 -0.4309
vn 0.9590 -0.0000 -0.2835
vn 0.9877 -0.0000 -0.1564
vn 0.9986 -0.0000 -0.0524
vt 0.669554 0.340936
vt 0.602125 0.273301
vt 0.669554 0.273301
vt 0.399837 0.340936
vt 0.669553 0.070397
vt 0.602124 0.070397
vt 0.669553 0.002762
vt 0.399836 0.002762
vt 0.346460 0.346460
vt 0.413966 0.414095
vt 0.346460 0.414095
vt 0.616482 0.346460
vt 0.346460 0.616999
vt 0.413966 0.616999
vt 0.346460 0.684634
vt 0.616482 0.684634
vt 0.392759 0.003133
vt 0.388476 0.339982
vt 0.385701 0.004240
vt 0.377287 0.337146
vt 0.375393 0.007228
vt 0.366314 0.332365
vt 0.365298 0.011889
vt 0.355915 0.325623
vt 0.355692 0.018248
vt 0.346910 0.026264
vt 0.346460 0.316951
vt 0.684477 0.012418
vt 0.965708 0.003356
vt 0.955111 0.013949
vt 0.675078 0.002762
vt 0.695160 0.023297
vt 0.943051 0.026005
vt 0.706815 0.035077
vt 0.932532 0.036521
vt 0.718902 0.047208
vt 0.921771 0.047277
vt 0.216715 0.757793
vt 0.149080 0.757793
vt 0.149080 0.690158
vt 0.216715 0.690158
vt 0.002764 0.346460
vt 0.070192 0.414095
vt 0.002763 0.414095
vt 0.272480 0.346460
vt 0.002762 0.616999
vt 0.070192 0.616999
vt 0.002762 0.684634
vt 0.272479 0.684634
vt 0.587515 0.757793
vt 0.587515 0.690158
vt 0.654944 0.757793
vt 0.654945 0.690158
vt 0.070397 0.690158
vt 0.070397 0.757793
vt 0.002762 0.757793
vt 0.002762 0.690158
vt 0.070397 0.070397
vt 0.070397 0.273301
vt 0.002762 0.273301
vt 0.002762 0.070397
vt 0.273301 0.273301
vt 0.070397 0.340936
vt 0.273301 0.340936
vt 0.273301 0.070397
vt 0.340936 0.070397
vt 0.340936 0.273301
vt 0.273301 0.002762
vt 0.070397 0.002762
vt 0.441456 0.757793
vt 0.441456 0.690158
vt 0.508962 0.690158
vt 0.508962 0.757793
vt 0.674611 0.346460
vt 0.742116 0.414095
vt 0.674611 0.414095
vt 0.944633 0.346460
vt 0.674611 0.616999
vt 0.742116 0.616999
vt 0.674611 0.684634
vt 0.944633 0.684634
vt 0.706815 0.262160
vt 0.718902 0.250077
vt 0.695160 0.273811
vt 0.684477 0.284491
vt 0.669087 0.369960
vt 0.669087 0.661134
vt 0.660425 0.361945
vt 0.675078 0.293886
vt 0.660425 0.669149
vt 0.650910 0.355586
vt 0.650910 0.675508
vt 0.640880 0.350926
vt 0.640880 0.680169
vt 0.630608 0.347938
vt 0.630608 0.683156
vt 0.623561 0.684264
vt 0.623561 0.346831
vt 0.143556 0.690158
vt 0.143556 0.757793
vt 0.075921 0.757793
vt 0.075921 0.690158
vt 0.747565 0.757793
vt 0.747565 0.690158
vt 0.814994 0.757793
vt 0.814994 0.690158
vt 0.514486 0.757793
vt 0.514486 0.690158
vt 0.581991 0.690158
vt 0.581991 0.757793
vt 0.921771 0.250147
vt 0.933898 0.262238
vt 0.945674 0.273897
vt 0.956549 0.284584
vt 0.966202 0.293986
vt 0.325406 0.369962
vt 0.316402 0.669322
vt 0.316624 0.361946
vt 0.307018 0.355587
vt 0.325856 0.660649
vt 0.306002 0.676063
vt 0.296923 0.350926
vt 0.295029 0.680844
vt 0.286615 0.347938
vt 0.283840 0.683680
vt 0.279557 0.346831
vt 0.295397 0.757793
vt 0.295397 0.690158
vt 0.362903 0.690158
vt 0.362903 0.757793
vt 0.289873 0.757793
vt 0.222239 0.757793
vt 0.222239 0.690158
vt 0.289873 0.690158
vt 0.674611 0.757793
vt 0.674611 0.690158
vt 0.742040 0.690158
vt 0.742041 0.757793
vt 0.368427 0.757793
vt 0.368427 0.690158
vt 0.435932 0.757793
vt 0.435932 0.690158
vt 0.002762 0.830952
vt 0.002762 0.763317
vt 0.070192 0.763317
vt 0.070191 0.830952
vt 0.997238 0.369960
vt 0.997238 0.661134
vt 0.988576 0.361945
vt 0.988576 0.669149
vt 0.979061 0.355586
vt 0.979061 0.675508
vt 0.969031 0.350926
vt 0.969031 0.680169
vt 0.958759 0.347938
vt 0.958759 0.683156
vt 0.951712 0.684264
vt 0.951712 0.346831
s 0
f 1/1/1 2/2/1 3/3/1
f 1/1/1 4/4/1 2/2/1
f 5/5/1 6/6/1 7/7/1
f 2/2/1 8/8/1 6/6/1
f 4/4/1 8/8/1 2/2/1
f 6/6/1 8/8/1 7/7/1
f 7/9/2 9/10/2 10/11/2
f 7/9/2 8/12/2 9/10/2
f 11/13/2 12/14/2 13/15/2
f 9/10/2 14/16/2 12/14/2
f 8/12/2 14/16/2 9/10/2
f 12/14/2 14/16/2 13/15/2
f 15/17/3 4/4/3 16/18/3
f 15/17/4 8/8/4 4/4/4
f 17/19/5 16/18/5 18/20/5
f 17/19/6 15/17/6 16/18/6
f 19/21/7 18/20/7 20/22/7
f 19/21/8 17/19/8 18/20/8
f 21/23/9 20/22/9 22/24/9
f 21/23/10 19/21/10 20/22/10
f 23/25/11 21/23/11 22/24/11
f 24/26/12 22/24/12 25/27/12
f 24/26/13 23/25/13 22/24/13
f 26/28/14 25/29/14 27/30/14
f 26/28/15 24/31/15 25/29/15
f 28/32/16 27/30/16 29/33/16
f 28/32/17 26/28/17 27/30/17
f 30/34/18 29/33/18 31/35/18
f 30/34/19 28/32/19 29/33/19
f 32/36/20 31/35/20 33/37/20
f 32/36/21 30/34/21 31/35/21
f 34/38/22 5/39/22 7/40/22
f 34/38/22 7/40/22 10/41/22
f 35/42/23 36/43/23 37/44/23
f 35/42/23 38/45/23 36/43/23
f 39/46/23 40/47/23 1/48/23
f 36/43/23 4/49/23 40/47/23
f 38/45/23 4/49/23 36/43/23
f 40/47/23 4/49/23 1/48/23
f 5/50/23 34/51/23 6/52/23
f 6/52/23 34/51/23 41/53/23
f 39/54/22 1/55/22 3/56/22
f 39/54/22 3/56/22 42/57/22
f 43/58/22 41/59/22 9/60/22
f 43/58/22 9/60/22 12/61/22
f 44/62/22 6/63/22 41/59/22
f 44/62/22 2/64/22 6/63/22
f 45/65/22 44/62/22 41/59/22
f 45/65/22 41/59/22 43/58/22
f 36/66/22 40/67/22 44/62/22
f 36/66/22 44/62/22 45/65/22
f 46/68/22 43/58/22 47/69/22
f 46/68/22 45/65/22 43/58/22
f 42/70/2 3/71/2 2/72/2
f 42/70/2 2/72/2 44/73/2
f 13/74/24 47/75/24 48/76/24
f 13/74/24 14/77/24 47/75/24
f 49/78/24 46/79/24 35/80/24
f 47/75/24 38/81/24 46/79/24
f 14/77/24 38/81/24 47/75/24
f 46/79/24 38/81/24 35/80/24
f 32/36/25 50/82/25 30/34/25
f 30/34/26 50/82/26 28/32/26
f 51/83/25 50/82/25 32/36/25
f 28/32/27 52/84/27 26/28/27
f 50/82/26 52/84/26 28/32/26
f 26/28/28 53/85/28 24/31/28
f 52/84/27 53/85/27 26/28/27
f 24/86/29 54/87/29 23/88/29
f 53/85/28 54/89/28 24/31/28
f 23/88/30 55/90/30 21/91/30
f 54/87/29 55/90/29 23/88/29
f 21/91/31 56/92/31 19/93/31
f 55/90/30 56/92/30 21/91/30
f 19/93/32 57/94/32 17/95/32
f 56/92/31 57/94/31 19/93/31
f 57/94/32 58/96/32 17/95/32
f 17/95/33 59/97/33 15/98/33
f 15/98/34 59/97/34 8/12/34
f 58/96/33 59/97/33 17/95/33
f 59/97/34 14/16/34 8/12/34
f 48/99/22 60/100/22 11/101/22
f 48/99/22 11/101/22 13/102/22
f 11/103/1 60/104/1 12/105/1
f 12/105/1 60/104/1 43/106/1
f 34/107/24 10/108/24 9/109/24
f 34/107/24 9/109/24 41/110/24
f 61/111/35 31/35/35 62/112/35
f 33/37/36 31/35/36 61/111/36
f 62/112/37 29/33/37 63/113/37
f 31/35/38 29/33/38 62/112/38
f 63/113/39 27/30/39 64/114/39
f 29/33/40 27/30/40 63/113/40
f 64/114/41 25/29/41 65/115/41
f 27/30/42 25/29/42 64/114/42
f 65/116/43 22/117/43 66/118/43
f 66/118/44 22/117/44 67/119/44
f 25/120/45 22/117/45 65/116/45
f 67/119/46 20/121/46 68/122/46
f 22/117/47 20/121/47 67/119/47
f 68/122/48 18/123/48 69/124/48
f 20/121/49 18/123/49 68/122/49
f 69/124/50 16/125/50 70/126/50
f 18/123/51 16/125/51 69/124/51
f 70/126/52 4/49/52 38/45/52
f 16/125/53 4/49/53 70/126/53
f 32/36/54 61/111/54 51/83/54
f 33/37/54 61/111/54 32/36/54
f 39/127/24 42/128/24 44/129/24
f 39/127/24 44/129/24 40/130/24
f 35/131/22 37/132/22 71/133/22
f 35/131/22 71/133/22 49/134/22
f 71/135/1 37/136/1 36/137/1
f 71/135/1 36/137/1 45/138/1
f 49/139/2 71/140/2 46/141/2
f 46/141/2 71/140/2 45/142/2
f 60/143/23 48/144/23 47/145/23
f 60/143/23 47/145/23 43/146/23
f 61/111/55 50/82/55 51/83/55
f 50/82/56 62/112/56 52/84/56
f 61/111/55 62/112/55 50/82/55
f 52/84/57 63/113/57 53/85/57
f 62/112/56 63/113/56 52/84/56
f 53/85/58 64/114/58 54/89/58
f 63/113/57 64/114/57 53/85/57
f 54/147/59 65/148/59 55/149/59
f 64/114/58 65/115/58 54/89/58
f 55/149/60 66/150/60 56/151/60
f 65/148/59 66/150/59 55/149/59
f 56/151/61 67/152/61 57/153/61
f 66/150/60 67/152/60 56/151/60
f 57/153/62 68/154/62 58/155/62
f 67/152/61 68/154/61 57/153/61
f 68/154/62 69/156/62 58/155/62
f 58/155/63 70/157/63 59/158/63
f 59/158/64 70/157/64 14/77/64
f 69/156/63 70/157/63 58/155/63
f 70/157/64 38/81/64 14/77/64
