# Created by FreeCAD <http://www.freecad.org>
v -0.500000 0.500000 0.200000
v -0.500000 -0.500000 0.200000
v -0.500000 0.500000 1.000000
v -0.500000 -0.500000 1.000000
v 0.500000 0.500000 0.200000
v 0.500000 0.500000 1.000000
v -0.497178 -0.497178 0.166522
v -0.497178 0.497178 0.166522
v -0.488793 -0.488793 0.133990
v -0.488793 0.488793 0.133990
v -0.474652 -0.474652 0.102549
v -0.474652 0.474652 0.102549
v -0.454717 -0.454717 0.073261
v -0.454717 0.454717 0.073261
v -0.429071 -0.429071 0.047223
v -0.429071 0.429071 0.047223
v -0.398128 -0.398128 0.025728
v -0.398128 0.398128 0.025728
v -0.362750 -0.362750 0.010099
v -0.362750 0.362750 0.010099
v -0.331778 -0.331778 0.002541
v -0.331778 0.331778 0.002541
v -0.300000 -0.300000 0.000000
v -0.300000 0.300000 0.000000
v 0.500000 -0.500000 1.000000
v 0.500000 -0.500000 0.200000
v 0.497178 0.497178 0.166522
v 0.488793 0.488793 0.133990
v 0.474652 0.474652 0.102549
v 0.454717 0.454717 0.073261
v 0.429071 0.429071 0.047223
v 0.398128 0.398128 0.025728
v 0.362750 0.362750 0.010099
v 0.331778 0.331778 0.002541
v 0.300000 0.300000 0.000000
v 0.300000 -0.300000 0.000000
v 0.497178 -0.497178 0.166522
v 0.488793 -0.488793 0.133990
v 0.474652 -0.474652 0.102549
v 0.454717 -0.454717 0.073261
v 0.429071 -0.429071 0.047223
v 0.398128 -0.398128 0.025728
v 0.362750 -0.362750 0.010099
v 0.331778 -0.331778 0.002541
vn -1.000000 0.000000 0.000000
vn -1.000000 -0.000000 0.000000
vn 0.000000 1.000000 -0.000000
vn 0.000000 1.000000 0.000000
vn -0.996466 0.000000 -0.083991
vn -0.996467 0.000000 -0.083991
vn -0.968349 0.000000 -0.249601
vn -0.968349 0.000000 -0.249601
vn -0.912005 0.000000 -0.410179
vn -0.912005 0.000000 -0.410179
vn -0.826671 0.000000 -0.562686
vn -0.826671 0.000000 -0.562686
vn -0.712448 0.000000 -0.701725
vn -0.712448 0.000000 -0.701725
vn -0.570534 0.000000 -0.821274
vn -0.570534 0.000000 -0.821274
vn -0.404088 0.000000 -0.914720
vn -0.404089 0.000000 -0.914720
vn -0.237074 0.000000 -0.971492
vn -0.237074 0.000000 -0.971492
vn -0.079700 0.000000 -0.996819
vn -0.079700 0.000000 -0.996819
vn 0.000000 0.000000 1.000000
vn 0.000000 0.000000 1.000000
vn 0.000000 -1.000000 0.000000
vn 0.000000 -1.000000 0.000000
vn 1.000000 0.000000 0.000000
vn 1.000000 -0.000000 0.000000
vn 0.000000 0.996467 -0.083991
vn 0.000000 0.996466 -0.083991
vn 0.000000 0.968349 -0.249601
vn 0.000000 0.968349 -0.249601
vn 0.000000 0.912005 -0.410179
vn 0.000000 0.912005 -0.410179
vn 0.000000 0.826671 -0.562686
vn 0.000000 0.826671 -0.562686
vn 0.000000 0.712448 -0.701725
vn 0.000000 0.712448 -0.701725
vn 0.000000 0.570534 -0.821274
vn 0.000000 0.570534 -0.821274
vn 0.000000 0.404088 -0.914720
vn 0.000000 0.404089 -0.914720
vn 0.000000 0.237074 -0.971492
vn 0.000000 0.237074 -0.971492
vn 0.000000 0.079700 -0.996819
vn 0.000000 0.079700 -0.996819
vn 0.000000 0.000000 -1.000000
vn 0.000000 0.000000 -1.000000
vn -0.000000 -0.996466 -0.083991
vn 0.000000 -0.996467 -0.083991
vn -0.000000 -0.968349 -0.249601
vn 0.000000 -0.968349 -0.249601
vn -0.000000 -0.912005 -0.410179
vn 0.000000 -0.912005 -0.410179
vn -0.000000 -0.826671 -0.562686
vn 0.000000 -0.826671 -0.562686
vn -0.000000 -0.712448 -0.701725
vn 0.000000 -0.712448 -0.701725
vn -0.000000 -0.570534 -0.821274
vn 0.000000 -0.570534 -0.821274
vn -0.000000 -0.404088 -0.914720
vn 0.000000 -0.404089 -0.914720
vn -0.000000 -0.237074 -0.971492
vn -0.000000 -0.079700 -0.996819
vn 0.000000 -0.237074 -0.971492
vn -0.000000 -0.079700 -0.996819
vn 0.996466 0.000000 -0.083991
vn 0.996467 0.000000 -0.083991
vn 0.968349 0.000000 -0.249601
vn 0.968349 0.000000 -0.249601
vn 0.912005 0.000000 -0.410179
vn 0.912005 0.000000 -0.410179
vn 0.826671 0.000000 -0.562686
vn 0.826671 0.000000 -0.562686
vn 0.712448 0.000000 -0.701725
vn 0.712448 0.000000 -0.701725
vn 0.570534 0.000000 -0.821274
vn 0.570534 0.000000 -0.821274
vn 0.404088 0.000000 -0.914720
vn 0.404089 0.000000 -0.914720
vn 0.237074 0.000000 -0.971492
vn 0.079700 0.000000 -0.996819
vn 0.237074 0.000000 -0.971492
vn 0.079700 0.000000 -0.996819
f 1//1 2//1 3//1
f 3//2 2//2 4//2
f 5//3 1//3 6//3
f 6//4 1//4 3//4
f 7//5 1//5 8//5
f 7//6 2//6 1//6
f 9//7 8//7 10//7
f 9//8 7//8 8//8
f 11//9 10//9 12//9
f 11//10 9//10 10//10
f 13//11 12//11 14//11
f 13//12 11//12 12//12
f 15//13 14//13 16//13
f 15//14 13//14 14//14
f 17//15 16//15 18//15
f 17//16 15//16 16//16
f 19//17 18//17 20//17
f 19//18 17//18 18//18
f 21//19 20//19 22//19
f 21//20 19//20 20//20
f 23//21 22//21 24//21
f 23//22 21//22 22//22
f 6//23 3//23 4//23
f 6//24 4//24 25//24
f 2//25 26//25 4//25
f 4//26 26//26 25//26
f 26//27 5//27 25//27
f 25//28 5//28 6//28
f 1//29 5//29 27//29
f 8//30 1//30 27//30
f 10//31 27//31 28//31
f 10//32 8//32 27//32
f 12//33 28//33 29//33
f 12//34 10//34 28//34
f 14//35 29//35 30//35
f 14//36 12//36 29//36
f 16//37 30//37 31//37
f 16//38 14//38 30//38
f 18//39 31//39 32//39
f 18//40 16//40 31//40
f 20//41 32//41 33//41
f 20//42 18//42 32//42
f 22//43 33//43 34//43
f 22//44 20//44 33//44
f 24//45 34//45 35//45
f 24//46 22//46 34//46
f 24//47 35//47 23//47
f 23//48 35//48 36//48
f 37//49 2//49 7//49
f 37//50 26//50 2//50
f 38//51 7//51 9//51
f 38//52 37//52 7//52
f 39//53 9//53 11//53
f 39//54 38//54 9//54
f 40//55 11//55 13//55
f 40//56 39//56 11//56
f 41//57 13//57 15//57
f 41//58 40//58 13//58
f 42//59 15//59 17//59
f 42//60 41//60 15//60
f 43//61 17//61 19//61
f 43//62 42//62 17//62
f 44//63 19//63 21//63
f 44//64 21//64 23//64
f 44//65 43//65 19//65
f 36//66 44//66 23//66
f 27//67 26//67 37//67
f 27//68 5//68 26//68
f 28//69 37//69 38//69
f 28//70 27//70 37//70
f 29//71 38//71 39//71
f 29//72 28//72 38//72
f 30//73 39//73 40//73
f 30//74 29//74 39//74
f 31//75 40//75 41//75
f 31//76 30//76 40//76
f 32//77 41//77 42//77
f 32//78 31//78 41//78
f 33//79 42//79 43//79
f 33//80 32//80 42//80
f 34//81 43//81 44//81
f 34//82 44//82 36//82
f 34//83 33//83 43//83
f 35//84 34//84 36//84
