# Blender 3.6.0
# www.blender.org
o ShipPowerCableHub_Raw
v -0.150000 0.092287 0.000000
v -0.150000 -0.107713 0.000000
v -0.150000 0.092287 0.100000
v -0.150000 -0.107713 0.100000
v -0.149187 -0.115963 0.000000
v -0.149187 -0.115963 0.100000
v -0.146781 -0.123896 0.000000
v -0.146781 -0.123896 0.100000
v -0.142873 -0.131206 0.000000
v -0.142873 -0.131206 0.100000
v -0.137614 -0.137614 0.000000
v -0.137614 -0.137614 0.100000
v -0.131206 -0.142873 0.000000
v -0.131206 -0.142873 0.100000
v -0.123896 -0.146781 0.000000
v -0.123896 -0.146781 0.100000
v -0.115963 -0.149187 0.000000
v -0.115963 -0.149187 0.100000
v -0.107713 -0.150000 0.000000
v -0.107713 -0.150000 0.100000
v 0.092287 -0.150000 0.000000
v 0.092287 -0.150000 0.100000
v 0.102309 -0.149123 0.000000
v 0.102309 -0.149123 0.100000
v 0.112026 -0.146519 0.000000
v 0.112026 -0.146519 0.100000
v 0.121143 -0.142268 0.000000
v 0.121143 -0.142268 0.100000
v 0.129384 -0.136498 0.000000
v 0.129384 -0.136498 0.100000
v 0.136498 -0.129384 0.000000
v 0.136498 -0.129384 0.100000
v 0.142268 -0.121143 0.000000
v 0.142268 -0.121143 0.100000
v 0.146519 -0.112026 0.000000
v 0.146519 -0.112026 0.100000
v 0.149123 -0.102309 0.000000
v 0.149123 -0.102309 0.100000
v 0.150000 -0.092287 0.000000
v 0.150000 -0.092287 0.100000
v 0.150000 0.107713 0.000000
v 0.150000 0.107713 0.100000
v 0.149187 0.115963 0.000000
v 0.149187 0.115963 0.100000
v 0.146781 0.123896 0.000000
v 0.146781 0.123896 0.100000
v 0.142873 0.131206 0.000000
v 0.142873 0.131206 0.100000
v 0.137614 0.137614 0.000000
v 0.137614 0.137614 0.100000
v 0.131206 0.142873 0.000000
v 0.131206 0.142873 0.100000
v 0.123896 0.146781 0.000000
v 0.123896 0.146781 0.100000
v 0.115963 0.149187 0.000000
v 0.115963 0.149187 0.100000
v 0.107713 0.150000 0.000000
v 0.107713 0.150000 0.100000
v -0.092287 0.150000 0.000000
v -0.092287 0.150000 0.100000
v -0.102309 0.149123 0.000000
v -0.102309 0.149123 0.100000
v -0.112026 0.146519 0.000000
v -0.112026 0.146519 0.100000
v -0.121143 0.142268 0.000000
v -0.121143 0.142268 0.100000
v -0.129384 0.136498 0.000000
v -0.129384 0.136498 0.100000
v -0.136498 0.129384 0.000000
v -0.136498 0.129384 0.100000
v -0.142268 0.121143 0.000000
v -0.142268 0.121143 0.100000
v -0.146519 0.112026 0.000000
v -0.146519 0.112026 0.100000
v -0.149123 0.102309 0.000000
v -0.149123 0.102309 0.100000
vn -1.0000 -0.0000 -0.0000
vn -0.9952 -0.0981 -0.0000
vn -0.9570 -0.2902 -0.0000
vn -0.8819 -0.4715 -0.0000
vn -0.7730 -0.6344 -0.0000
vn -0.6344 -0.7730 -0.0000
vn -0.4715 -0.8819 -0.0000
vn -0.2902 -0.9570 -0.0000
vn -0.0981 -0.9952 -0.0000
vn -0.0000 -1.0000 -0.0000
vn 0.0872 -0.9962 -0.0000
vn 0.2588 -0.9659 -0.0000
vn 0.4226 -0.9063 -0.0000
vn 0.5735 -0.8192 -0.0000
vn 0.7071 -0.7071 -0.0000
vn 0.8192 -0.5735 -0.0000
vn 0.9063 -0.4226 -0.0000
vn 0.9659 -0.2588 -0.0000
vn 0.9659 -0.2589 -0.0000
vn 0.9962 -0.0872 -0.0000
vn 1.0000 -0.0000 -0.0000
vn 0.9952 0.0981 -0.0000
vn 0.9570 0.2902 -0.0000
vn 0.8819 0.4715 -0.0000
vn 0.7730 0.6344 -0.0000
vn 0.6344 0.7730 -0.0000
vn 0.4715 0.8819 -0.0000
vn 0.2902 0.9570 -0.0000
vn 0.0981 0.9952 -0.0000
vn -0.0000 1.0000 -0.0000
vn -0.0872 0.9962 -0.0000
vn -0.2588 0.9659 -0.0000
vn -0.4226 0.9063 -0.0000
vn -0.5735 0.8192 -0.0000
vn -0.7071 0.7071 -0.0000
vn -0.8192 0.5735 -0.0000
vn -0.9063 0.4226 -0.0000
vn -0.9659 0.2588 -0.0000
vn -0.9659 0.2589 -0.0000
vn -0.9962 0.0872 -0.0000
vn -0.0000 -0.0000 -1.0000
vn -0.0000 -0.0000 1.0000
vt 0.529711 0.340843
vt 0.833144 0.340843
vt 0.529711 0.506145
vt 0.833144 0.506145
vt 0.846194 0.340843
vt 0.846194 0.506145
vt 0.859809 0.340843
vt 0.859809 0.506145
vt 0.873464 0.340843
vt 0.873464 0.506145
vt 0.886637 0.340843
vt 0.886637 0.506145
vt 0.898821 0.340843
vt 0.898821 0.506145
vt 0.909547 0.340843
vt 0.909547 0.506145
vt 0.502048 0.167349
vt 0.512762 0.002048
vt 0.512762 0.167349
vt 0.502048 0.002048
vt 0.524937 0.002048
vt 0.524937 0.167349
vt 0.832121 0.002048
vt 0.832121 0.167349
vt 0.848050 0.002048
vt 0.848050 0.167349
vt 0.864566 0.002048
vt 0.864566 0.167349
vt 0.881167 0.002048
vt 0.881167 0.167349
vt 0.897350 0.002048
vt 0.897350 0.167349
vt 0.912624 0.002048
vt 0.912624 0.167349
vt 0.926522 0.002048
vt 0.926522 0.167349
vt 0.938622 0.002048
vt 0.938622 0.167349
vt 0.502048 0.675542
vt 0.515082 0.510241
vt 0.515082 0.675542
vt 0.502048 0.510241
vt 0.529711 0.510241
vt 0.529711 0.675542
vt 0.833144 0.510241
vt 0.833144 0.675542
vt 0.846194 0.510241
vt 0.846194 0.675542
vt 0.859809 0.510241
vt 0.859809 0.675542
vt 0.873464 0.510241
vt 0.873464 0.675542
vt 0.886637 0.510241
vt 0.886637 0.675542
vt 0.898821 0.510241
vt 0.898821 0.675542
vt 0.909547 0.510241
vt 0.909547 0.675542
vt 0.502048 0.336747
vt 0.512762 0.171446
vt 0.512762 0.336747
vt 0.502048 0.171446
vt 0.524937 0.171446
vt 0.524937 0.336747
vt 0.832121 0.171446
vt 0.832121 0.336747
vt 0.848050 0.171446
vt 0.848050 0.336747
vt 0.864566 0.171446
vt 0.864566 0.336747
vt 0.881167 0.171446
vt 0.881167 0.336747
vt 0.897350 0.171446
vt 0.897350 0.336747
vt 0.912624 0.171446
vt 0.912624 0.336747
vt 0.926522 0.171446
vt 0.926522 0.336747
vt 0.938622 0.171446
vt 0.938622 0.336747
vt 0.502048 0.506145
vt 0.515082 0.340843
vt 0.515082 0.506145
vt 0.502048 0.340843
vt 0.058312 0.003392
vt 0.071949 0.002048
vt 0.045198 0.007369
vt 0.033115 0.013829
vt 0.022522 0.022522
vt 0.013829 0.033115
vt 0.007369 0.045198
vt 0.003392 0.058312
vt 0.002048 0.071949
vt 0.402552 0.002048
vt 0.002048 0.402552
vt 0.007802 0.435180
vt 0.003498 0.419118
vt 0.450251 0.014829
vt 0.463873 0.024367
vt 0.435180 0.007802
vt 0.097448 0.497952
vt 0.014829 0.450251
vt 0.024367 0.463873
vt 0.036127 0.475633
vt 0.049749 0.485171
vt 0.064820 0.492198
vt 0.080882 0.496502
vt 0.496502 0.080882
vt 0.497952 0.097448
vt 0.492198 0.064820
vt 0.485171 0.049749
vt 0.475633 0.036127
vt 0.419118 0.003498
vt 0.497952 0.428051
vt 0.428051 0.497952
vt 0.496608 0.441688
vt 0.492631 0.454802
vt 0.477478 0.477478
vt 0.441688 0.496608
vt 0.454802 0.492631
vt 0.466885 0.486171
vt 0.486171 0.466885
vt 0.071949 0.997952
vt 0.058312 0.996608
vt 0.045198 0.992631
vt 0.033115 0.986171
vt 0.022522 0.977478
vt 0.013829 0.966885
vt 0.007369 0.954802
vt 0.003392 0.941688
vt 0.002048 0.928051
vt 0.402552 0.997952
vt 0.002048 0.597448
vt 0.007802 0.564820
vt 0.003498 0.580882
vt 0.463873 0.975633
vt 0.450251 0.985171
vt 0.435180 0.992198
vt 0.097448 0.502048
vt 0.014829 0.549749
vt 0.024367 0.536127
vt 0.036127 0.524367
vt 0.049749 0.514829
vt 0.064820 0.507802
vt 0.080882 0.503498
vt 0.497952 0.902552
vt 0.496502 0.919118
vt 0.492198 0.935180
vt 0.485171 0.950251
vt 0.475633 0.963873
vt 0.419118 0.996502
vt 0.428051 0.502048
vt 0.497952 0.571949
vt 0.492631 0.545198
vt 0.496608 0.558312
vt 0.477478 0.522522
vt 0.441688 0.503392
vt 0.454802 0.507369
vt 0.466885 0.513829
vt 0.486171 0.533115
s 0
f 1/1/1 2/2/1 3/3/1
f 3/3/1 2/2/1 4/4/1
f 2/2/2 5/5/2 4/4/2
f 4/4/2 5/5/2 6/6/2
f 6/6/3 7/7/3 8/8/3
f 5/5/3 7/7/3 6/6/3
f 8/8/4 9/9/4 10/10/4
f 7/7/4 9/9/4 8/8/4
f 10/10/5 11/11/5 12/12/5
f 9/9/5 11/11/5 10/10/5
f 12/12/6 13/13/6 14/14/6
f 11/11/6 13/13/6 12/12/6
f 14/14/7 15/15/7 16/16/7
f 13/13/7 15/15/7 14/14/7
f 16/17/8 17/18/8 18/19/8
f 15/20/8 17/18/8 16/17/8
f 18/19/9 19/21/9 20/22/9
f 17/18/9 19/21/9 18/19/9
f 19/21/10 21/23/10 20/22/10
f 20/22/10 21/23/10 22/24/10
f 21/23/11 23/25/11 22/24/11
f 22/24/11 23/25/11 24/26/11
f 24/26/12 25/27/12 26/28/12
f 23/25/12 25/27/12 24/26/12
f 26/28/13 27/29/13 28/30/13
f 25/27/13 27/29/13 26/28/13
f 28/30/14 29/31/14 30/32/14
f 27/29/14 29/31/14 28/30/14
f 30/32/15 31/33/15 32/34/15
f 29/31/15 31/33/15 30/32/15
f 32/34/16 33/35/16 34/36/16
f 31/33/16 33/35/16 32/34/16
f 34/36/17 35/37/17 36/38/17
f 33/35/17 35/37/17 34/36/17
f 36/39/18 37/40/18 38/41/18
f 35/42/19 37/40/19 36/39/19
f 38/41/20 39/43/20 40/44/20
f 37/40/20 39/43/20 38/41/20
f 39/43/21 41/45/21 40/44/21
f 40/44/21 41/45/21 42/46/21
f 41/45/22 43/47/22 42/46/22
f 42/46/22 43/47/22 44/48/22
f 44/48/23 45/49/23 46/50/23
f 43/47/23 45/49/23 44/48/23
f 46/50/24 47/51/24 48/52/24
f 45/49/24 47/51/24 46/50/24
f 48/52/25 49/53/25 50/54/25
f 47/51/25 49/53/25 48/52/25
f 50/54/26 51/55/26 52/56/26
f 49/53/26 51/55/26 50/54/26
f 52/56/27 53/57/27 54/58/27
f 51/55/27 53/57/27 52/56/27
f 54/59/28 55/60/28 56/61/28
f 53/62/28 55/60/28 54/59/28
f 56/61/29 57/63/29 58/64/29
f 55/60/29 57/63/29 56/61/29
f 57/63/30 59/65/30 58/64/30
f 58/64/30 59/65/30 60/66/30
f 59/65/31 61/67/31 60/66/31
f 60/66/31 61/67/31 62/68/31
f 62/68/32 63/69/32 64/70/32
f 61/67/32 63/69/32 62/68/32
f 64/70/33 65/71/33 66/72/33
f 63/69/33 65/71/33 64/70/33
f 66/72/34 67/73/34 68/74/34
f 65/71/34 67/73/34 66/72/34
f 68/74/35 69/75/35 70/76/35
f 67/73/35 69/75/35 68/74/35
f 70/76/36 71/77/36 72/78/36
f 69/75/36 71/77/36 70/76/36
f 72/78/37 73/79/37 74/80/37
f 71/77/37 73/79/37 72/78/37
f 74/81/38 75/82/38 76/83/38
f 73/84/39 75/82/39 74/81/39
f 76/83/40 1/1/40 3/3/40
f 75/82/40 1/1/40 76/83/40
f 5/85/41 2/86/41 7/87/41
f 7/87/41 2/86/41 9/88/41
f 9/88/41 2/86/41 11/89/41
f 11/89/41 2/86/41 13/90/41
f 13/90/41 2/86/41 15/91/41
f 15/91/41 2/86/41 17/92/41
f 17/92/41 2/86/41 19/93/41
f 19/93/41 1/94/41 21/95/41
f 2/86/41 1/94/41 19/93/41
f 21/95/41 25/96/41 23/97/41
f 71/98/41 69/99/41 73/100/41
f 25/96/41 39/101/41 27/102/41
f 27/102/41 39/101/41 29/103/41
f 29/103/41 39/101/41 31/104/41
f 31/104/41 39/101/41 33/105/41
f 33/105/41 39/101/41 35/106/41
f 35/106/41 39/101/41 37/107/41
f 21/95/41 39/101/41 25/96/41
f 61/108/41 59/109/41 63/110/41
f 63/110/41 59/109/41 65/111/41
f 65/111/41 59/109/41 67/112/41
f 67/112/41 59/109/41 69/99/41
f 73/100/41 59/109/41 75/113/41
f 75/113/41 59/109/41 1/94/41
f 1/94/41 59/109/41 21/95/41
f 69/99/41 59/109/41 73/100/41
f 21/95/41 59/109/41 39/101/41
f 57/114/41 41/115/41 59/109/41
f 59/109/41 41/115/41 39/101/41
f 55/116/41 53/117/41 57/114/41
f 53/117/41 49/118/41 57/114/41
f 41/115/41 49/118/41 43/119/41
f 43/119/41 49/118/41 45/120/41
f 45/120/41 49/118/41 47/121/41
f 51/122/41 49/118/41 53/117/41
f 57/114/41 49/118/41 41/115/41
f 4/123/42 6/124/42 8/125/42
f 4/123/42 8/125/42 10/126/42
f 4/123/42 10/126/42 12/127/42
f 4/123/42 12/127/42 14/128/42
f 4/123/42 14/128/42 16/129/42
f 4/123/42 16/129/42 18/130/42
f 4/123/42 18/130/42 20/131/42
f 3/132/42 20/131/42 22/133/42
f 3/132/42 4/123/42 20/131/42
f 26/134/42 22/133/42 24/135/42
f 70/136/42 72/137/42 74/138/42
f 40/139/42 26/134/42 28/140/42
f 40/139/42 28/140/42 30/141/42
f 40/139/42 30/141/42 32/142/42
f 40/139/42 32/142/42 34/143/42
f 40/139/42 34/143/42 36/144/42
f 40/139/42 36/144/42 38/145/42
f 40/139/42 22/133/42 26/134/42
f 60/146/42 62/147/42 64/148/42
f 60/146/42 64/148/42 66/149/42
f 60/146/42 66/149/42 68/150/42
f 60/146/42 68/150/42 70/136/42
f 60/146/42 74/138/42 76/151/42
f 60/146/42 76/151/42 3/132/42
f 60/146/42 3/132/42 22/133/42
f 60/146/42 70/136/42 74/138/42
f 60/146/42 22/133/42 40/139/42
f 42/152/42 58/153/42 60/146/42
f 42/152/42 60/146/42 40/139/42
f 54/154/42 56/155/42 58/153/42
f 50/156/42 54/154/42 58/153/42
f 50/156/42 42/152/42 44/157/42
f 50/156/42 44/157/42 46/158/42
f 50/156/42 46/158/42 48/159/42
f 50/156/42 52/160/42 54/154/42
f 50/156/42 58/153/42 42/152/42
