# Blender 3.6.0
# www.blender.org
o ShipDataCableHub_Raw
v -0.170000 0.170000 0.136222
v -0.170000 0.170000 -0.006778
v -0.170000 0.150000 0.103222
v -0.170000 0.150000 -0.006778
v -0.170000 -0.150000 0.103222
v -0.170000 -0.170000 0.136222
v -0.170000 -0.150000 -0.006778
v -0.170000 -0.170000 -0.006778
v -0.150000 -0.170000 0.103222
v -0.150000 -0.170000 -0.006778
v 0.150000 -0.170000 0.103222
v 0.170000 -0.170000 0.136222
v 0.150000 -0.170000 -0.006778
v 0.170000 -0.170000 -0.006778
v -0.120000 -0.120000 0.191222
v -0.120000 0.120000 0.191222
v -0.150000 -0.150000 -0.006778
v 0.170000 0.170000 0.136222
v 0.170000 0.170000 -0.006778
v 0.150000 0.170000 0.103222
v 0.150000 0.170000 -0.006778
v -0.150000 0.170000 0.103222
v -0.150000 0.170000 -0.006778
v -0.150000 -0.150000 0.103222
v -0.150000 0.150000 -0.006778
v -0.150000 0.150000 0.103222
v 0.170000 -0.150000 0.103222
v 0.170000 -0.150000 -0.006778
v 0.170000 0.150000 0.103222
v 0.170000 0.150000 -0.006778
v 0.120000 -0.120000 0.191222
v 0.150000 -0.150000 -0.006778
v 0.150000 -0.150000 0.103222
v 0.150000 0.150000 0.103222
v 0.120000 0.120000 0.191222
v 0.150000 0.150000 -0.006778
vn -1.0000 -0.0000 -0.0000
vn -0.0000 -1.0000 -0.0000
vn -0.7399 -0.0000 0.6727
vn -0.0000 -0.0000 -1.0000
vn -0.0000 1.0000 -0.0000
vn 1.0000 -0.0000 -0.0000
vn -0.0000 -0.7399 0.6727
vn -0.0000 0.7399 0.6727
vn -0.0000 -0.0000 1.0000
vn 0.7399 -0.0000 0.6727
vt 0.512953 0.002600
vt 0.681337 0.002600
vt 0.551811 0.028505
vt 0.681337 0.028505
vt 0.551811 0.417084
vt 0.512953 0.442989
vt 0.681337 0.417084
vt 0.681337 0.442989
vt 0.067363 0.448189
vt 0.235747 0.448189
vt 0.106221 0.474095
vt 0.235747 0.474095
vt 0.106221 0.862674
vt 0.067363 0.888579
vt 0.235747 0.862674
vt 0.235747 0.888579
vt 0.448189 0.378226
vt 0.448189 0.067363
vt 0.712442 0.344568
vt 0.686537 0.344568
vt 0.712442 0.318663
vt 0.686537 0.318663
vt 0.305711 0.448189
vt 0.474095 0.448189
vt 0.344568 0.474095
vt 0.474095 0.474095
vt 0.344568 0.862674
vt 0.305711 0.888579
vt 0.474095 0.862674
vt 0.474095 0.888579
vt 0.743547 0.448190
vt 0.743547 0.577716
vt 0.717642 0.577716
vt 0.717642 0.448190
vt 0.712442 0.375674
vt 0.686537 0.375674
vt 0.712442 0.349768
vt 0.686537 0.349768
vt 0.417084 0.028505
vt 0.028505 0.028505
vt 0.028505 0.002600
vt 0.417084 0.002600
vt 0.717642 0.712442
vt 0.717642 0.582916
vt 0.743547 0.582916
vt 0.743547 0.712442
vt 0.544058 0.448189
vt 0.712442 0.448189
vt 0.582916 0.474095
vt 0.712442 0.474095
vt 0.582916 0.862674
vt 0.544058 0.888579
vt 0.712442 0.862674
vt 0.712442 0.888579
vt 0.002600 0.823816
vt 0.002600 0.512953
vt 0.712442 0.442989
vt 0.686537 0.442989
vt 0.712442 0.417084
vt 0.686537 0.417084
vt 0.748747 0.577716
vt 0.748747 0.448190
vt 0.774653 0.448190
vt 0.774653 0.577716
vt 0.417084 0.417084
vt 0.442989 0.028505
vt 0.442989 0.417084
vt 0.028505 0.417084
vt 0.002600 0.417084
vt 0.002600 0.028505
vt 0.774653 0.582916
vt 0.774653 0.712442
vt 0.748747 0.712442
vt 0.748747 0.582916
vt 0.240947 0.512953
vt 0.240947 0.823816
vt 0.997400 0.313463
vt 0.686537 0.313463
vt 0.686537 0.002600
vt 0.997400 0.002600
vt 0.805758 0.448190
vt 0.805758 0.577716
vt 0.779853 0.577716
vt 0.779853 0.448190
vt 0.712442 0.406779
vt 0.686537 0.406779
vt 0.712442 0.380874
vt 0.686537 0.380874
vt 0.779853 0.712442
vt 0.779853 0.582916
vt 0.805758 0.582916
vt 0.805758 0.712442
vt 0.479295 0.512953
vt 0.479295 0.823816
vt 0.810958 0.577716
vt 0.810958 0.448190
vt 0.836863 0.448190
vt 0.836863 0.577716
vt 0.417084 0.442989
vt 0.028505 0.442989
vt 0.836863 0.582916
vt 0.836863 0.712442
vt 0.810958 0.712442
vt 0.810958 0.582916
s 0
f 1/1/1 2/2/1 3/3/1
f 2/2/1 4/4/1 3/3/1
f 1/1/1 5/5/1 6/6/1
f 3/3/1 5/5/1 1/1/1
f 7/7/1 8/8/1 5/5/1
f 5/5/1 8/8/1 6/6/1
f 6/9/2 8/10/2 9/11/2
f 8/10/2 10/12/2 9/11/2
f 6/9/2 11/13/2 12/14/2
f 9/11/2 11/13/2 6/9/2
f 13/15/2 14/16/2 11/13/2
f 11/13/2 14/16/2 12/14/2
f 15/17/3 16/18/3 1/1/3
f 15/17/3 1/1/3 6/6/3
f 7/19/4 17/20/4 8/21/4
f 8/21/4 17/20/4 10/22/4
f 18/23/5 19/24/5 20/25/5
f 19/24/5 21/26/5 20/25/5
f 18/23/5 22/27/5 1/28/5
f 20/25/5 22/27/5 18/23/5
f 23/29/5 2/30/5 22/27/5
f 22/27/5 2/30/5 1/28/5
f 24/31/5 17/32/5 7/33/5
f 24/31/5 7/33/5 5/34/5
f 2/35/4 23/36/4 4/37/4
f 4/37/4 23/36/4 25/38/4
f 26/39/4 24/40/4 5/41/4
f 26/39/4 5/41/4 3/42/4
f 25/43/2 26/44/2 3/45/2
f 25/43/2 3/45/2 4/46/2
f 12/47/6 14/48/6 27/49/6
f 14/48/6 28/50/6 27/49/6
f 12/47/6 29/51/6 18/52/6
f 27/49/6 29/51/6 12/47/6
f 30/53/6 19/54/6 29/51/6
f 29/51/6 19/54/6 18/52/6
f 31/55/7 15/56/7 6/9/7
f 31/55/7 6/9/7 12/14/7
f 32/57/4 28/58/4 13/59/4
f 13/59/4 28/58/4 14/60/4
f 13/61/1 11/62/1 33/63/1
f 13/61/1 33/63/1 32/64/1
f 34/65/4 26/39/4 22/66/4
f 34/65/4 22/66/4 20/67/4
f 33/68/4 24/40/4 26/39/4
f 33/68/4 26/39/4 34/65/4
f 11/69/4 9/70/4 24/40/4
f 11/69/4 24/40/4 33/68/4
f 9/71/6 10/72/6 17/73/6
f 9/71/6 17/73/6 24/74/6
f 18/23/8 1/28/8 35/75/8
f 35/75/8 1/28/8 16/76/8
f 35/77/9 16/78/9 15/79/9
f 35/77/9 15/79/9 31/80/9
f 26/81/6 25/82/6 23/83/6
f 26/81/6 23/83/6 22/84/6
f 21/85/4 19/86/4 36/87/4
f 36/87/4 19/86/4 30/88/4
f 36/89/1 34/90/1 20/91/1
f 36/89/1 20/91/1 21/92/1
f 12/47/10 18/52/10 31/93/10
f 31/93/10 18/52/10 35/94/10
f 30/95/2 29/96/2 34/97/2
f 30/95/2 34/97/2 36/98/2
f 29/99/4 27/100/4 33/68/4
f 29/99/4 33/68/4 34/65/4
f 27/101/5 28/102/5 32/103/5
f 27/101/5 32/103/5 33/104/5
