# Blender 3.6.0
# www.blender.org
o Cube
v 2.000000 -2.000000 8.000000
v 2.000000 -2.000000 0.000000
v -2.000000 -2.000000 8.000000
v -2.000000 -2.000000 0.000000
v 2.000000 2.000000 8.000000
v 2.000000 2.000000 0.000000
v -2.000000 2.000000 8.000000
v -2.000000 2.000000 0.000000
v 1.000000 -1.000000 18.000000
v -1.000000 -1.000000 18.000000
v 1.000000 1.000000 18.000000
v -1.000000 1.000000 18.000000
v 1.000000 -1.000000 28.000000
v -1.000000 -1.000000 28.000000
v 1.000000 1.000000 28.000000
v -1.000000 1.000000 28.000000
v 2.000000 -2.000000 33.000000
v -2.000000 -2.000000 33.000000
v 2.000000 2.000000 33.000000
v -2.000000 2.000000 33.000000
v 2.000000 -2.000000 34.000000
v -2.000000 -2.000000 34.000000
v 2.000000 2.000000 34.000000
v -2.000000 2.000000 34.000000
v -1.831349 1.000000 18.000000
v -1.831349 -1.000000 18.000000
v -1.831349 -1.000000 28.000000
v -1.831349 1.000000 28.000000
v 1.831349 -1.000000 18.000000
v 1.831349 1.000000 18.000000
v 1.831349 1.000000 28.000000
v 1.831349 -1.000000 28.000000
v 1.000000 1.831349 18.000000
v -1.000000 1.831349 18.000000
v -1.000000 1.831349 28.000000
v 1.000000 1.831349 28.000000
v -1.000000 -1.831349 18.000000
v 1.000000 -1.831349 18.000000
v 1.000000 -1.831349 28.000000
v -1.000000 -1.831349 28.000000
v 2.000000 -2.000000 34.500263
v -2.000000 -2.000000 34.500263
v 2.000000 2.000000 34.500263
v -2.000000 2.000000 34.500263
v 2.688151 2.688151 33.000000
v -2.688151 2.688151 33.000000
v -2.688151 2.688151 34.000000
v 2.688151 2.688151 34.000000
v -2.688151 -2.688151 33.000000
v 2.688151 -2.688151 33.000000
v 2.688151 -2.688151 34.000000
v -2.688151 -2.688151 34.000000
vn -1.0000 -0.0000 -0.0000
vn -0.9950 -0.0000 0.0995
vn 1.0000 -0.0000 -0.0000
vn -0.0000 -1.0000 -0.0000
vn -0.0000 1.0000 -0.0000
vn -0.0000 -0.0000 -1.0000
vn 0.9950 -0.0000 0.0995
vn -0.0000 0.9950 0.0995
vn -0.0000 -0.9950 0.0995
vn -0.0000 0.9806 -0.1961
vn -0.0000 -0.0000 1.0000
vn -0.0000 -0.9806 -0.1961
vn -0.9806 -0.0000 -0.1961
vn 0.9806 -0.0000 -0.1961
vt 0.388631 0.353237
vt 0.523160 0.622296
vt 0.388631 0.622296
vt 0.005079 0.343080
vt 0.105976 0.005079
vt 0.139608 0.343080
vt 0.699367 0.005079
vt 0.833897 0.274138
vt 0.699367 0.274138
vt 0.699367 0.284295
vt 0.833897 0.553354
vt 0.699367 0.553354
vt 0.699367 0.563512
vt 0.833897 0.832571
vt 0.699367 0.832571
vt 0.533318 0.957959
vt 0.667847 0.823429
vt 0.667847 0.957959
vt 0.357566 0.834248
vt 0.340741 0.699719
vt 0.357566 0.699719
vt 0.149766 0.343080
vt 0.250663 0.005079
vt 0.284295 0.343080
vt 0.294453 0.343080
vt 0.395350 0.005079
vt 0.428982 0.343080
vt 0.439140 0.343080
vt 0.540037 0.005079
vt 0.573669 0.343080
vt 0.229686 0.871211
vt 0.330584 0.699719
vt 0.296951 0.871211
vt 0.904669 0.139608
vt 0.887844 0.005079
vt 0.904669 0.005079
vt 0.904669 0.284295
vt 0.887844 0.149766
vt 0.904669 0.149766
vt 0.699367 0.977258
vt 0.833897 0.842728
vt 0.833897 0.977258
vt 0.877687 0.749497
vt 0.978584 0.578005
vt 0.944951 0.749497
vt 0.877687 0.931146
vt 0.978584 0.759654
vt 0.944951 0.931146
vt 0.422263 0.994921
vt 0.523160 0.823429
vt 0.489528 0.994921
vt 0.904669 0.428982
vt 0.887844 0.294453
vt 0.904669 0.294453
vt 0.583827 0.341402
vt 0.651092 0.005079
vt 0.651092 0.341402
vt 0.533318 0.611477
vt 0.561278 0.544213
vt 0.561278 0.611477
vt 0.689210 0.005079
vt 0.661249 0.341402
vt 0.661249 0.005079
vt 0.583827 0.765306
vt 0.611787 0.698041
vt 0.611787 0.765306
vt 0.661249 0.687883
vt 0.689210 0.351560
vt 0.689210 0.687883
vt 0.583827 0.687883
vt 0.651092 0.351560
vt 0.651092 0.687883
vt 0.649905 0.698041
vt 0.621945 0.765306
vt 0.621945 0.698041
vt 0.187884 0.353237
vt 0.159923 0.689561
vt 0.159923 0.353237
vt 0.688023 0.698041
vt 0.660063 0.765306
vt 0.660063 0.698041
vt 0.198041 0.689561
vt 0.226002 0.353237
vt 0.226002 0.689561
vt 0.005079 0.689561
vt 0.072344 0.353237
vt 0.072344 0.689561
vt 0.368701 0.844406
vt 0.340741 0.911670
vt 0.340741 0.844406
vt 0.264120 0.353237
vt 0.236159 0.689561
vt 0.236159 0.353237
vt 0.887844 0.506405
vt 0.915804 0.439140
vt 0.915804 0.506405
vt 0.274277 0.689561
vt 0.302237 0.353237
vt 0.302237 0.689561
vt 0.082501 0.689561
vt 0.149766 0.353237
vt 0.149766 0.689561
vt 0.914827 0.072344
vt 0.942787 0.005079
vt 0.942787 0.072344
vt 0.340355 0.353237
vt 0.312395 0.689561
vt 0.312395 0.353237
vt 0.942787 0.082501
vt 0.914827 0.149766
vt 0.914827 0.082501
vt 0.350513 0.689561
vt 0.378473 0.353237
vt 0.378473 0.689561
vt 0.566950 0.534055
vt 0.533318 0.353237
vt 0.566950 0.353237
vt 0.569448 0.632454
vt 0.546304 0.790127
vt 0.546304 0.655598
vt 0.005079 0.880536
vt 0.028223 0.722863
vt 0.028223 0.857392
vt 0.877687 0.185897
vt 0.844054 0.005079
vt 0.877687 0.005079
vt 0.388631 0.813272
vt 0.411775 0.655598
vt 0.411775 0.790127
vt 0.185896 0.699719
vt 0.162752 0.857392
vt 0.162752 0.722863
vt 0.877687 0.376872
vt 0.844054 0.196054
vt 0.877687 0.196054
vt 0.388631 0.632454
vt 0.005079 0.699719
vt 0.877687 0.567847
vt 0.844054 0.387029
vt 0.877687 0.387029
vt 0.569448 0.813272
vt 0.185896 0.880536
vt 0.523160 0.353237
vt 0.038711 0.005079
vt 0.833897 0.005079
vt 0.833897 0.284295
vt 0.833897 0.563512
vt 0.533318 0.823429
vt 0.340741 0.834248
vt 0.183398 0.005079
vt 0.328085 0.005079
vt 0.472772 0.005079
vt 0.196054 0.699719
vt 0.887844 0.139608
vt 0.887844 0.284295
vt 0.699367 0.842728
vt 0.844054 0.578005
vt 0.844054 0.759654
vt 0.388631 0.823429
vt 0.887844 0.428982
vt 0.583827 0.005079
vt 0.533318 0.544213
vt 0.689210 0.341402
vt 0.583827 0.698041
vt 0.661249 0.351560
vt 0.583827 0.351560
vt 0.649905 0.765306
vt 0.187884 0.689561
vt 0.688023 0.765306
vt 0.198041 0.353237
vt 0.005079 0.353237
vt 0.368701 0.911670
vt 0.264120 0.689561
vt 0.887844 0.439140
vt 0.274277 0.353237
vt 0.082501 0.353237
vt 0.914827 0.005079
vt 0.340355 0.689561
vt 0.942787 0.149766
vt 0.350513 0.353237
vt 0.533318 0.534055
vt 0.844054 0.185897
vt 0.844054 0.376872
vt 0.844054 0.567847
s 0
f 3/1/1 8/2/1 4/3/1
f 3/4/2 12/5/2 7/6/2
f 5/7/3 2/8/3 6/9/3
f 1/10/4 4/11/4 2/12/4
f 7/13/5 6/14/5 8/15/5
f 2/16/6 8/17/6 6/18/6
f 21/19/4 42/20/4 22/21/4
f 5/22/7 9/23/7 1/24/7
f 7/25/8 11/26/8 5/27/8
f 1/28/9 10/29/9 3/30/9
f 16/31/10 19/32/10 15/33/10
f 24/34/5 43/35/5 23/36/5
f 23/37/3 41/38/3 21/39/3
f 43/40/11 42/41/11 41/42/11
f 13/43/12 18/44/12 14/45/12
f 14/46/13 20/47/13 16/48/13
f 15/49/14 17/50/14 13/51/14
f 22/52/1 44/53/1 24/54/1
f 26/55/1 28/56/1 25/57/1
f 26/58/6 12/59/6 10/60/6
f 27/61/4 10/62/4 14/63/4
f 28/64/11 14/65/11 16/66/11
f 25/67/5 16/68/5 12/69/5
f 30/70/3 32/71/3 29/72/3
f 30/73/6 9/74/6 11/75/6
f 31/76/5 11/77/5 15/78/5
f 32/79/11 15/80/11 13/81/11
f 29/82/4 13/83/4 9/84/4
f 34/85/5 36/86/5 33/87/5
f 34/88/6 11/89/6 12/90/6
f 35/91/1 12/92/1 16/93/1
f 36/94/11 16/95/11 15/96/11
f 33/97/3 15/98/3 11/99/3
f 38/100/4 40/101/4 37/102/4
f 38/103/6 10/104/6 9/105/6
f 39/106/3 9/107/3 13/108/3
f 40/109/11 13/110/11 14/111/11
f 37/112/1 14/113/1 10/114/1
f 46/115/5 48/116/5 45/117/5
f 46/118/6 19/119/6 20/120/6
f 48/121/11 24/122/11 23/123/11
f 50/124/4 52/125/4 49/126/4
f 50/127/6 18/128/6 17/129/6
f 52/130/11 21/131/11 22/132/11
f 49/133/1 47/134/1 46/135/1
f 49/136/6 20/120/6 18/128/6
f 47/137/11 22/132/11 24/122/11
f 45/138/3 51/139/3 50/140/3
f 45/141/6 17/129/6 19/119/6
f 51/142/11 23/123/11 21/131/11
f 3/1/1 7/143/1 8/2/1
f 3/4/2 10/144/2 12/5/2
f 5/7/3 1/145/3 2/8/3
f 1/10/4 3/146/4 4/11/4
f 7/13/5 5/147/5 6/14/5
f 2/16/6 4/148/6 8/17/6
f 21/19/4 41/149/4 42/20/4
f 5/22/7 11/150/7 9/23/7
f 7/25/8 12/151/8 11/26/8
f 1/28/9 9/152/9 10/29/9
f 16/31/10 20/153/10 19/32/10
f 24/34/5 44/154/5 43/35/5
f 23/37/3 43/155/3 41/38/3
f 43/40/11 44/156/11 42/41/11
f 13/43/12 17/157/12 18/44/12
f 14/46/13 18/158/13 20/47/13
f 15/49/14 19/159/14 17/50/14
f 22/52/1 42/160/1 44/53/1
f 26/55/1 27/161/1 28/56/1
f 26/58/6 25/162/6 12/59/6
f 27/61/4 26/163/4 10/62/4
f 28/64/11 27/164/11 14/65/11
f 25/67/5 28/165/5 16/68/5
f 30/70/3 31/166/3 32/71/3
f 30/73/6 29/167/6 9/74/6
f 31/76/5 30/168/5 11/77/5
f 32/79/11 31/169/11 15/80/11
f 29/82/4 32/170/4 13/83/4
f 34/85/5 35/171/5 36/86/5
f 34/88/6 33/172/6 11/89/6
f 35/91/1 34/173/1 12/92/1
f 36/94/11 35/174/11 16/95/11
f 33/97/3 36/175/3 15/98/3
f 38/100/4 39/176/4 40/101/4
f 38/103/6 37/177/6 10/104/6
f 39/106/3 38/178/3 9/107/3
f 40/109/11 39/179/11 13/110/11
f 37/112/1 40/180/1 14/113/1
f 46/115/5 47/181/5 48/116/5
f 46/118/6 45/141/6 19/119/6
f 48/121/11 47/137/11 24/122/11
f 50/124/4 51/182/4 52/125/4
f 50/127/6 49/136/6 18/128/6
f 52/130/11 51/142/11 21/131/11
f 49/133/1 52/183/1 47/134/1
f 49/136/6 46/118/6 20/120/6
f 47/137/11 52/130/11 22/132/11
f 45/138/3 48/184/3 51/139/3
f 45/141/6 50/127/6 17/129/6
f 51/142/11 48/121/11 23/123/11
