# Blender 3.6.2
# www.blender.org
o Roof.Raw
v 2.400000 -0.000000 3.000000
v 2.400003 40.000000 3.000000
v 2.400003 40.000000 2.500000
v 2.400000 -0.000000 2.500000
v 2.500003 40.000000 2.500000
v 2.500000 -0.000000 2.500000
v 2.500003 40.000000 3.000000
v 2.500000 -0.000000 3.000000
v 2.474928 -0.000000 3.222521
v 2.474931 40.000000 3.222521
v 2.400969 -0.000000 3.433884
v 2.400972 40.000000 3.433884
v 2.281832 -0.000000 3.623490
v 2.281835 40.000000 3.623490
v 2.123490 -0.000000 3.781832
v 2.123493 40.000000 3.781832
v 1.933887 40.000000 3.900969
v 1.933884 -0.000000 3.900969
v 1.722521 -0.000000 3.974928
v 1.722524 40.000000 3.974928
v 1.500000 -0.000000 4.000000
v 1.500003 40.000000 4.000000
v -1.499997 40.000000 4.000000
v -1.500000 0.000000 4.000000
v -1.722521 0.000000 3.974928
v -1.722518 40.000000 3.974928
v -1.933884 0.000000 3.900969
v -1.933881 40.000000 3.900969
v -2.123490 0.000000 3.781832
v -2.123487 40.000000 3.781832
v -2.281829 40.000000 3.623490
v -2.281832 0.000000 3.623490
v -2.400969 0.000000 3.433884
v -2.400966 40.000000 3.433884
v -2.474925 40.000000 3.222521
v -2.474928 0.000000 3.222521
v -2.499997 40.000000 3.000000
v -2.500000 0.000000 3.000000
v -2.499997 40.000000 2.500000
v -2.500000 0.000000 2.500000
v -2.399997 40.000000 2.500000
v -2.400000 0.000000 2.500000
v -2.399997 40.000000 3.000000
v -2.400000 0.000000 3.000000
v -1.500000 0.000000 3.900000
v -1.700269 0.000000 3.877435
v -1.499997 40.000000 3.900000
v -1.700266 40.000000 3.877435
v -1.890495 0.000000 3.810872
v -1.890492 40.000000 3.810872
v -2.061141 0.000000 3.703648
v -2.061138 40.000000 3.703648
v -2.203645 40.000000 3.561141
v -2.203648 0.000000 3.561141
v -2.310869 40.000000 3.390495
v -2.310872 0.000000 3.390495
v -2.377435 0.000000 3.200269
v -2.377432 40.000000 3.200269
v 1.500003 40.000000 3.900000
v 1.500000 -0.000000 3.900000
v 2.377438 40.000000 3.200269
v 2.377435 -0.000000 3.200269
v 2.310872 -0.000000 3.390495
v 2.310875 40.000000 3.390495
v 2.203648 -0.000000 3.561141
v 2.203651 40.000000 3.561141
v 2.061141 -0.000000 3.703648
v 2.061144 40.000000 3.703648
v 1.890495 -0.000000 3.810872
v 1.890498 40.000000 3.810872
v 1.700269 -0.000000 3.877435
v 1.700272 40.000000 3.877435
v -2.499997 40.000000 3.000000
v -2.399997 40.000000 2.500000
v -2.499997 40.000000 2.500000
v -2.399997 40.000000 3.000000
v -1.499997 40.000000 4.000000
v -1.499997 40.000000 3.900000
v 2.500003 40.000000 3.000000
v 2.500003 40.000000 2.500000
v 2.400003 40.000000 2.500000
v 2.400003 40.000000 3.000000
v 1.500003 40.000000 4.000000
v 1.500003 40.000000 3.900000
vn -1.0000 -0.0000 -0.0000
vn -0.0000 -0.0000 -1.0000
vn 1.0000 -0.0000 -0.0000
vn 0.9937 -0.0000 0.1120
vn 0.9439 -0.0000 0.3303
vn 0.8467 -0.0000 0.5320
vn 0.7071 -0.0000 0.7071
vn 0.5320 -0.0000 0.8467
vn 0.3303 -0.0000 0.9439
vn 0.1120 -0.0000 0.9937
vn -0.0000 -0.0000 1.0000
vn -0.1120 -0.0000 0.9937
vn -0.3303 -0.0000 0.9439
vn -0.5320 -0.0000 0.8467
vn -0.7071 -0.0000 0.7071
vn -0.8467 -0.0000 0.5320
vn -0.9439 -0.0000 0.3303
vn -0.9937 -0.0000 0.1120
vn 0.1120 -0.0000 -0.9937
vn 0.3303 -0.0000 -0.9439
vn 0.5320 -0.0000 -0.8467
vn 0.7071 -0.0000 -0.7071
vn 0.8467 -0.0000 -0.5320
vn 0.9439 -0.0000 -0.3303
vn 0.9937 -0.0000 -0.1120
vn -0.9937 -0.0000 -0.1120
vn -0.9439 -0.0000 -0.3303
vn -0.8467 -0.0000 -0.5320
vn -0.7071 -0.0000 -0.7071
vn -0.5320 -0.0000 -0.8467
vn -0.3303 -0.0000 -0.9439
vn -0.1120 -0.0000 -0.9937
vn -0.0000 -1.0000 -0.0000
vn -0.0000 1.0000 -0.0000
vt 0.241866 0.998427
vt 0.241866 0.001573
vt 0.254327 0.001573
vt 0.254327 0.998427
vt 0.355396 0.001573
vt 0.355396 0.998427
vt 0.352904 0.998427
vt 0.352904 0.001573
vt 0.318614 0.001573
vt 0.318614 0.998427
vt 0.306153 0.998427
vt 0.306153 0.001573
vt 0.300607 0.001573
vt 0.300607 0.998427
vt 0.295340 0.001573
vt 0.295340 0.998427
vt 0.290615 0.001573
vt 0.290615 0.998427
vt 0.111359 0.001573
vt 0.115306 0.998427
vt 0.111359 0.998427
vt 0.106634 0.998427
vt 0.115306 0.001573
vt 0.106634 0.001573
vt 0.101367 0.001573
vt 0.101367 0.998427
vt 0.095821 0.001573
vt 0.095821 0.998427
vt 0.021057 0.998427
vt 0.021057 0.001573
vt 0.015512 0.001573
vt 0.015512 0.998427
vt 0.010244 0.001573
vt 0.010244 0.998427
vt 0.005519 0.001573
vt 0.005519 0.998427
vt 0.001573 0.998427
vt 0.001573 0.001573
vt 0.326485 0.998427
vt 0.321759 0.001573
vt 0.326485 0.001573
vt 0.331752 0.001573
vt 0.321759 0.998427
vt 0.331752 0.998427
vt 0.337298 0.001573
vt 0.337298 0.998427
vt 0.349758 0.001573
vt 0.349758 0.998427
vt 0.361034 0.001573
vt 0.361034 0.998427
vt 0.358542 0.998427
vt 0.358542 0.001573
vt 0.287469 0.001573
vt 0.287469 0.998427
vt 0.275008 0.998427
vt 0.275008 0.001573
vt 0.207200 0.001573
vt 0.212191 0.001573
vt 0.207200 0.998427
vt 0.212191 0.998427
vt 0.216931 0.001573
vt 0.216931 0.998427
vt 0.221184 0.001573
vt 0.221184 0.998427
vt 0.257472 0.998427
vt 0.257472 0.001573
vt 0.261024 0.998427
vt 0.261024 0.001573
vt 0.265277 0.998427
vt 0.265277 0.001573
vt 0.270017 0.001573
vt 0.270017 0.998427
vt 0.132436 0.998427
vt 0.132436 0.001573
vt 0.236875 0.001573
vt 0.236875 0.998427
vt 0.232134 0.998427
vt 0.232134 0.001573
vt 0.227881 0.998427
vt 0.227881 0.001573
vt 0.224330 0.998427
vt 0.224330 0.001573
vt 0.118451 0.998427
vt 0.122704 0.001573
vt 0.122704 0.998427
vt 0.118451 0.001573
vt 0.127445 0.001573
vt 0.127445 0.998427
vt 0.401562 0.004065
vt 0.389101 0.001573
vt 0.401562 0.001573
vt 0.389101 0.004065
vt 0.383556 0.002198
vt 0.384110 0.004627
vt 0.378288 0.004041
vt 0.379370 0.006286
vt 0.373563 0.007010
vt 0.375117 0.008958
vt 0.371565 0.012510
vt 0.369617 0.010956
vt 0.368893 0.016763
vt 0.366648 0.015681
vt 0.367234 0.021503
vt 0.364805 0.020949
vt 0.366672 0.026494
vt 0.364180 0.026494
vt 0.366672 0.101258
vt 0.364180 0.101258
vt 0.401562 0.126180
vt 0.389101 0.126180
vt 0.401562 0.123688
vt 0.389101 0.123688
vt 0.367234 0.106249
vt 0.364805 0.106804
vt 0.383556 0.125555
vt 0.384110 0.123125
vt 0.371565 0.115243
vt 0.366648 0.112071
vt 0.368893 0.110990
vt 0.378288 0.123712
vt 0.379370 0.121466
vt 0.375117 0.118794
vt 0.369617 0.116797
vt 0.373563 0.120743
vt 0.389101 0.253932
vt 0.401562 0.251440
vt 0.401562 0.253932
vt 0.389101 0.251440
vt 0.383556 0.253307
vt 0.384110 0.250878
vt 0.378288 0.251464
vt 0.379370 0.249219
vt 0.373563 0.248495
vt 0.375117 0.246547
vt 0.369617 0.244549
vt 0.371565 0.242995
vt 0.366648 0.239824
vt 0.368893 0.238743
vt 0.364805 0.234556
vt 0.367234 0.234002
vt 0.364180 0.229011
vt 0.366672 0.229011
vt 0.389101 0.129325
vt 0.401562 0.129325
vt 0.401562 0.131818
vt 0.389101 0.131818
vt 0.364180 0.154247
vt 0.366672 0.154247
vt 0.367234 0.149256
vt 0.383556 0.129950
vt 0.384110 0.132380
vt 0.364805 0.148701
vt 0.379370 0.134039
vt 0.378288 0.131793
vt 0.366648 0.143434
vt 0.368893 0.144515
vt 0.373563 0.134762
vt 0.375117 0.136711
vt 0.369617 0.138709
vt 0.371565 0.140262
s 0
f 1/1/1 2/2/1 3/3/1
f 4/4/1 1/1/1 3/3/1
f 4/5/2 3/6/2 5/7/2
f 6/8/2 4/5/2 5/7/2
f 6/9/3 5/10/3 7/11/3
f 8/12/3 6/9/3 7/11/3
f 9/13/4 8/12/4 7/11/4
f 9/13/4 7/11/4 10/14/4
f 11/15/5 10/14/5 12/16/5
f 11/15/5 9/13/5 10/14/5
f 13/17/6 12/16/6 14/18/6
f 13/17/6 11/15/6 12/16/6
f 15/19/7 14/20/7 16/21/7
f 15/19/8 16/21/8 17/22/8
f 15/19/7 13/23/7 14/20/7
f 18/24/8 15/19/8 17/22/8
f 19/25/9 17/22/9 20/26/9
f 19/25/9 18/24/9 17/22/9
f 21/27/10 20/26/10 22/28/10
f 21/27/10 19/25/10 20/26/10
f 21/27/11 22/28/11 23/29/11
f 24/30/11 21/27/11 23/29/11
f 25/31/12 24/30/12 23/29/12
f 25/31/12 23/29/12 26/32/12
f 27/33/13 26/32/13 28/34/13
f 27/33/13 25/31/13 26/32/13
f 29/35/14 28/34/14 30/36/14
f 29/35/15 30/36/15 31/37/15
f 29/35/14 27/33/14 28/34/14
f 32/38/15 29/35/15 31/37/15
f 33/39/16 31/40/16 34/41/16
f 33/39/17 34/41/17 35/42/17
f 33/39/16 32/43/16 31/40/16
f 36/44/18 35/42/18 37/45/18
f 36/44/17 33/39/17 35/42/17
f 38/46/18 36/44/18 37/45/18
f 38/46/1 37/45/1 39/47/1
f 40/48/1 38/46/1 39/47/1
f 40/49/2 39/50/2 41/51/2
f 42/52/2 40/49/2 41/51/2
f 42/53/3 41/54/3 43/55/3
f 44/56/3 42/53/3 43/55/3
f 45/57/19 46/58/19 47/59/19
f 47/59/19 46/58/19 48/60/19
f 48/60/20 49/61/20 50/62/20
f 46/58/20 49/61/20 48/60/20
f 50/62/21 51/63/21 52/64/21
f 52/65/22 51/66/22 53/67/22
f 49/61/21 51/63/21 50/62/21
f 53/67/23 54/68/23 55/69/23
f 51/66/22 54/68/22 53/67/22
f 54/68/23 56/70/23 55/69/23
f 55/69/24 57/71/24 58/72/24
f 56/70/24 57/71/24 55/69/24
f 58/72/25 44/56/25 43/55/25
f 57/71/25 44/56/25 58/72/25
f 45/57/2 47/59/2 59/73/2
f 60/74/2 45/57/2 59/73/2
f 2/2/26 1/1/26 61/75/26
f 1/1/26 62/76/26 61/75/26
f 61/75/27 63/77/27 64/78/27
f 62/76/27 63/77/27 61/75/27
f 64/78/28 65/79/28 66/80/28
f 63/77/28 65/79/28 64/78/28
f 66/80/29 67/81/29 68/82/29
f 65/79/29 67/81/29 66/80/29
f 68/83/30 69/84/30 70/85/30
f 67/86/30 69/84/30 68/83/30
f 70/85/31 71/87/31 72/88/31
f 69/84/31 71/87/31 70/85/31
f 72/88/32 60/74/32 59/73/32
f 71/87/32 60/74/32 72/88/32
f 42/89/33 38/90/33 40/91/33
f 42/89/33 44/92/33 38/90/33
f 44/92/33 36/93/33 38/90/33
f 44/92/33 57/94/33 36/93/33
f 57/94/33 33/95/33 36/93/33
f 57/94/33 56/96/33 33/95/33
f 56/96/33 32/97/33 33/95/33
f 56/96/33 54/98/33 32/97/33
f 51/99/33 29/100/33 54/98/33
f 54/98/33 29/100/33 32/97/33
f 49/101/33 27/102/33 51/99/33
f 51/99/33 27/102/33 29/100/33
f 46/103/33 25/104/33 49/101/33
f 49/101/33 25/104/33 27/102/33
f 45/105/33 24/106/33 46/103/33
f 46/103/33 24/106/33 25/104/33
f 45/105/33 60/107/33 24/106/33
f 60/107/33 21/108/33 24/106/33
f 6/109/33 8/110/33 4/111/33
f 4/111/33 8/110/33 1/112/33
f 60/107/33 71/113/33 21/108/33
f 71/113/33 19/114/33 21/108/33
f 1/112/33 9/115/33 62/116/33
f 8/110/33 9/115/33 1/112/33
f 67/117/33 18/118/33 69/119/33
f 69/119/33 18/118/33 71/113/33
f 71/113/33 18/118/33 19/114/33
f 62/116/33 11/120/33 63/121/33
f 9/115/33 11/120/33 62/116/33
f 65/122/33 15/123/33 67/117/33
f 67/117/33 15/123/33 18/118/33
f 63/121/33 13/124/33 65/122/33
f 11/120/33 13/124/33 63/121/33
f 65/122/33 13/124/33 15/123/33
f 73/125/34 74/126/34 75/127/34
f 76/128/34 74/126/34 73/125/34
f 35/129/34 76/128/34 73/125/34
f 58/130/34 76/128/34 35/129/34
f 34/131/34 58/130/34 35/129/34
f 55/132/34 58/130/34 34/131/34
f 31/133/34 55/132/34 34/131/34
f 53/134/34 55/132/34 31/133/34
f 30/135/34 52/136/34 53/134/34
f 30/135/34 53/134/34 31/133/34
f 28/137/34 50/138/34 52/136/34
f 28/137/34 52/136/34 30/135/34
f 26/139/34 48/140/34 50/138/34
f 26/139/34 50/138/34 28/137/34
f 77/141/34 78/142/34 48/140/34
f 77/141/34 48/140/34 26/139/34
f 79/143/34 80/144/34 81/145/34
f 79/143/34 81/145/34 82/146/34
f 83/147/34 84/148/34 78/142/34
f 83/147/34 78/142/34 77/141/34
f 72/149/34 84/148/34 83/147/34
f 10/150/34 82/146/34 61/151/34
f 10/150/34 79/143/34 82/146/34
f 20/152/34 72/149/34 83/147/34
f 64/153/34 10/150/34 61/151/34
f 12/154/34 10/150/34 64/153/34
f 17/155/34 70/156/34 72/149/34
f 17/155/34 72/149/34 20/152/34
f 14/157/34 12/154/34 64/153/34
f 14/157/34 64/153/34 66/158/34
f 16/159/34 66/158/34 68/160/34
f 16/159/34 14/157/34 66/158/34
f 16/159/34 68/160/34 70/156/34
f 16/159/34 70/156/34 17/155/34
